<!DOCTYPE svg PUBLIC "-//W3C//DTD SVG 20010904//EN" "http://www.w3.org/TR/2001/REC-SVG-20010904/DTD/svg10.dtd">
<svg version="1.0" xmlns="http://www.w3.org/2000/svg" width="237px" height="451px" viewBox="0 0 2370 4510" preserveAspectRatio="xMidYMid meet">
<g id="layer101" fill="#000000" stroke="none">
 <path d="M0 2255 l0 -2255 1185 0 1185 0 0 2255 0 2255 -1185 0 -1185 0 0 -2255z m2290 5 l0 -2170 -1105 0 -1105 0 0 2170 0 2170 1105 0 1105 0 0 -2170z"/>
 <path d="M423 4280 c-23 -5 -54 -16 -68 -26 -52 -34 -55 -50 -55 -349 l0 -275 60 0 60 0 0 263 c0 144 4 267 8 273 19 30 55 34 282 34 187 0 237 -3 260 -15 l30 -16 0 -269 0 -270 66 0 66 0 -4 273 c-5 405 19 381 -388 384 -151 1 -294 -2 -317 -7z"/>
 <path d="M1260 4246 l0 -46 301 0 c296 0 331 -3 351 -34 15 -22 9 -144 -8 -160 -24 -24 -40 -26 -309 -28 -278 -3 -297 -7 -335 -71 -28 -45 -28 -159 0 -204 40 -66 48 -68 418 -71 l332 -3 0 45 0 46 -303 0 c-354 0 -347 -2 -347 84 0 38 5 58 17 67 12 11 77 15 282 19 236 4 270 7 305 24 64 32 77 64 74 183 -3 92 -5 104 -28 129 -53 56 -66 59 -422 62 l-328 3 0 -45z"/>
 <path d="M660 3015 l0 -134 -208 -193 -209 -193 74 -3 74 -3 160 148 c88 81 165 149 170 151 5 2 82 -64 171 -147 l163 -151 75 0 75 1 -42 37 c-22 20 -118 109 -212 196 l-171 160 0 133 0 133 -60 0 -60 0 0 -135z"/>
 <path d="M1280 2819 l0 -330 323 3 c299 3 325 4 361 23 54 27 76 61 83 126 11 107 -30 180 -114 200 -23 6 -43 15 -43 20 0 4 32 68 70 142 39 74 70 137 70 141 0 4 -28 6 -62 4 l-62 -3 -77 -145 -76 -145 -177 -3 -176 -2 0 150 0 150 -60 0 -60 0 0 -331z m630 -79 c27 -27 27 -99 1 -131 -19 -24 -20 -24 -265 -27 l-246 -3 0 91 0 90 245 0 c232 0 246 -1 265 -20z"/>
 <path d="M340 1679 l0 -331 313 4 c345 4 359 7 411 68 27 33 28 35 24 146 -3 104 -5 115 -28 140 -50 54 -73 58 -347 62 l-253 4 0 119 0 119 -60 0 -60 0 0 -331z m593 -10 c33 -18 37 -28 37 -110 0 -117 8 -114 -274 -114 l-231 0 -3 104 c-1 58 0 111 2 118 7 17 436 19 469 2z"/>
 <path d="M1190 1680 l0 -330 60 0 60 0 0 135 0 135 275 0 275 0 0 -135 0 -135 60 0 60 0 0 330 0 330 -60 0 -60 0 0 -150 0 -150 -275 0 -275 0 0 150 0 150 -60 0 -60 0 0 -330z"/>
 <path d="M326 838 l2 -43 323 -227 c178 -125 327 -228 332 -228 4 0 7 -4 7 -10 0 -6 -117 -10 -330 -10 l-330 0 0 -50 0 -50 446 0 445 0 -3 38 c-3 37 -7 40 -333 268 -181 127 -331 236 -333 243 -3 8 85 11 333 11 l336 0 -3 48 -3 47 -446 3 -445 2 2 -42z"/>
 <path d="M1320 550 l0 -330 340 0 340 0 0 45 0 45 -280 0 -280 0 0 85 0 85 265 0 265 0 0 45 0 45 -265 0 -266 0 3 108 3 107 278 3 277 2 0 45 0 45 -340 0 -340 0 0 -330z"/>
 </g>

</svg>