<svg width="75" height="140" viewBox="0 0 75 140" fill="none" xmlns="http://www.w3.org/2000/svg">
<rect width="75" height="140" fill="#E5E5E5"/>
<path d="M11.3618 29.8401V27.3038L31.5611 13.2128H11.3618V10H38.1996V12.5364L17.9152 26.6274H38.1996V29.8401H11.3618Z" fill="black"/>
<path d="M39.682 29.8401V10H60.2217V12.9309H43.4552V17.891H59.3707V20.8219H43.4552V26.9092H60.2217V29.8401H39.682Z" fill="black"/>
<path d="M15.6172 56.5661V63.8934H11.844V44.0533H28.2135C29.3482 44.0533 30.3128 44.1754 31.1072 44.4197C31.9015 44.6451 32.5446 44.9739 33.0363 45.406C33.547 45.8194 33.9158 46.3172 34.1428 46.8997C34.3697 47.4821 34.4832 48.1303 34.4832 48.8442V51.7752C34.4832 52.4891 34.3697 53.1373 34.1428 53.7197C33.9158 54.3021 33.547 54.8094 33.0363 55.2415C32.5446 55.6549 31.9015 55.9837 31.1072 56.2279C30.3128 56.4534 29.3482 56.5661 28.2135 56.5661H15.6172ZM30.71 48.816C30.71 47.5948 29.8778 46.9842 28.2135 46.9842H15.6172V53.6352H28.2135C29.8778 53.6352 30.71 53.0246 30.71 51.8033V48.816Z" fill="black"/>
<path d="M55.8067 63.8934V54.8752H39.4656V63.8934H35.6925V44.0533H39.4656V51.9442H55.8067V44.0533H59.5799V63.8934H55.8067Z" fill="black"/>
<path d="M22.8232 97.9467V89.8867L10 78.1066H14.8229L24.6956 87.1812L34.5683 78.1066H39.3344L26.5964 89.8867V97.9467H22.8232Z" fill="black"/>
<path d="M58.7445 97.9467L54.0635 89.0976H43.5383V97.9467H39.7651V78.1066H56.7303C57.8651 78.1066 58.8296 78.2287 59.624 78.4729C60.4183 78.6984 61.0614 79.0272 61.5531 79.4593C62.0638 79.8726 62.4326 80.3705 62.6596 80.9529C62.8865 81.5354 63 82.1836 63 82.8975V84.3066C63 85.5842 62.6217 86.6551 61.8652 87.5194C61.1087 88.3648 59.8415 88.8721 58.0636 89.0412L62.773 97.9467H58.7445ZM59.2268 82.8693C59.2268 81.6481 58.3946 81.0375 56.7303 81.0375H43.5383V86.1666H56.7303C58.3946 86.1666 59.2268 85.556 59.2268 84.3348V82.8693Z" fill="black"/>
<path d="M18.0287 132C16.8939 132 15.9293 131.887 15.1349 131.662C14.3406 131.418 13.6881 131.089 13.1774 130.675C12.6857 130.243 12.3263 129.736 12.0994 129.154C11.8724 128.571 11.7589 127.923 11.7589 127.209V112.16H15.5321V127.237C15.5321 128.458 16.3643 129.069 18.0287 129.069H30.4263C32.0907 129.069 32.9228 128.458 32.9228 127.237V112.16H36.696V127.209C36.696 127.923 36.6204 128.571 36.4691 129.154C36.3367 129.736 36.0624 130.243 35.6464 130.675C35.2492 131.089 34.6912 131.418 33.9725 131.662C33.2727 131.887 32.3555 132 31.2207 132H18.0287Z" fill="black"/>
<path d="M39.1339 132V129.069H56.4962C58.1606 129.069 58.9928 128.458 58.9928 127.237V124.729C58.9928 123.508 58.1606 122.897 56.4962 122.897H44.7511C43.6163 122.897 42.6517 122.784 41.8574 122.559C41.063 122.315 40.4105 121.986 39.8998 121.573C39.4081 121.141 39.0487 120.633 38.8218 120.051C38.5948 119.468 38.4813 118.82 38.4813 118.106V116.951C38.4813 116.237 38.5948 115.589 38.8218 115.006C39.0487 114.424 39.4081 113.926 39.8998 113.513C40.4105 113.08 41.063 112.752 41.8574 112.526C42.6517 112.282 43.6163 112.16 44.7511 112.16H61.6595V115.091H44.7511C43.0867 115.091 42.2545 115.701 42.2545 116.923V118.134C42.2545 119.356 43.0867 119.966 44.7511 119.966H56.4962C57.631 119.966 58.5956 120.088 59.3899 120.333C60.1843 120.558 60.8273 120.887 61.3191 121.319C61.8297 121.732 62.1986 122.23 62.4255 122.813C62.6525 123.395 62.766 124.043 62.766 124.757V127.209C62.766 127.923 62.6525 128.571 62.4255 129.154C62.1986 129.736 61.8297 130.243 61.3191 130.675C60.8273 131.089 60.1843 131.418 59.3899 131.662C58.5956 131.887 57.631 132 56.4962 132H39.1339Z" fill="black"/>
<path fill-rule="evenodd" clip-rule="evenodd" d="M71.3115 3.55932H3.68852V136.441H71.3115V3.55932ZM0 0V140H75V0H0Z" fill="black"/>
</svg>
