<svg width="430" height="80" viewBox="0 0 430 80" fill="none" xmlns="http://www.w3.org/2000/svg">
<mask id="path-1-outside-1" maskUnits="userSpaceOnUse" x="0.743988" y="0.655991" width="429" height="79" fill="black">
<rect fill="white" x="0.743988" y="0.655991" width="429" height="79"/>
<path d="M27.32 10.432V68.224H14.936V10.432H27.32ZM27.32 2.65599H14.936H2.74399V73.024L14.936 76H27.32H39.512V5.63199L27.32 2.65599Z"/>
<path d="M86.162 2.65599H77.81H73.97L73.874 54.496L67.634 65.056L61.586 54.592V2.65599H57.746H49.394H45.362V10.432H49.394V51.904L62.642 74.848L71.09 76.96L86.066 50.176L86.162 10.432H90.098V2.65599H86.162Z"/>
<path d="M124.345 10.432V20.608L136.537 17.632V2.65599H124.345H111.961H108.121H99.7692H95.7372V10.432H99.7692V27.328L95.7372 26.368V34.144L99.7692 35.104V68.224H95.7372V76H99.7692H108.121H111.961H124.345H136.537V53.536L124.345 56.512V68.224L111.961 68.32V39.712L108.121 37.12L110.041 37.6L111.961 38.08L124.345 41.056V33.28L111.961 30.304V12.064L108.121 10.432H111.961H124.345Z"/>
<path d="M148.05 76H156.402H160.242V39.712L156.498 37.12L159.666 37.984L160.242 38.08L172.626 41.056V76H176.466H184.818H188.754V68.224H184.818V44.032V36.256L166.29 31.744L172.626 30.208L184.818 27.232V5.63199L172.626 2.65599H160.242H148.05H144.018V10.432H148.05V27.328L144.018 26.368V34.144L148.05 35.104V68.224H144.018V76H148.05ZM160.242 10.432H172.626V22.432L160.242 25.504V10.432Z"/>
<path d="M223.251 2.65599H194.643V10.432H198.675V27.328L194.643 26.368V34.144L198.675 35.104V68.224H194.643V76H223.251L235.443 73.024V36.256L226.707 34.144L235.443 32.032V5.63199L223.251 2.65599ZM223.251 10.432V33.28L210.867 30.304V12.064L207.027 10.432H223.251ZM223.251 68.224L210.867 68.32V39.712L207.027 37.12L223.251 41.056V68.224Z"/>
<path d="M267.508 10.432V68.224H255.123V10.432H267.508ZM267.508 2.65599H255.123H242.931V73.024L255.123 76H267.508H279.699V5.63199L267.508 2.65599Z"/>
<path d="M301.677 10.432H314.061V37.12L301.677 34.144V10.432ZM314.061 2.65599H301.677H289.486V68.224H285.453V76H289.486H297.837H301.677V43.552L297.837 40.96L301.677 41.92L314.061 44.896V76H317.901H326.254H330.19V68.224H326.254V47.872L330.19 48.832V41.056L326.254 40.096V5.63199L314.061 2.65599Z"/>
<path d="M340.238 76H348.59H352.43V39.712L348.686 37.12L351.854 37.984L352.43 38.08L364.814 41.056V76H368.654H377.006H380.942V68.224H377.006V44.032V36.256L358.478 31.744L364.814 30.208L377.006 27.232V5.63199L364.814 2.65599H352.43H340.238H336.206V10.432H340.238V27.328L336.206 26.368V34.144L340.238 35.104V68.224H336.206V76H340.238ZM352.43 10.432H364.814V22.432L352.43 25.504V10.432Z"/>
<path d="M415.343 2.65599H386.735V10.432H390.767V27.328L386.735 26.368V34.144L390.767 35.104V68.224H386.735V76H415.343L427.535 73.024V5.63199L415.343 2.65599ZM415.343 10.432V68.224L402.959 68.32V39.712L399.119 37.12L400.463 37.504L407.759 39.232V31.456L402.959 30.304V12.064L399.119 10.432H415.343Z"/>
</mask>
<path d="M27.32 10.432V68.224H14.936V10.432H27.32ZM27.32 2.65599H14.936H2.74399V73.024L14.936 76H27.32H39.512V5.63199L27.32 2.65599Z" fill="#0A0030"/>
<path d="M86.162 2.65599H77.81H73.97L73.874 54.496L67.634 65.056L61.586 54.592V2.65599H57.746H49.394H45.362V10.432H49.394V51.904L62.642 74.848L71.09 76.96L86.066 50.176L86.162 10.432H90.098V2.65599H86.162Z" fill="#0A0030"/>
<path d="M124.345 10.432V20.608L136.537 17.632V2.65599H124.345H111.961H108.121H99.7692H95.7372V10.432H99.7692V27.328L95.7372 26.368V34.144L99.7692 35.104V68.224H95.7372V76H99.7692H108.121H111.961H124.345H136.537V53.536L124.345 56.512V68.224L111.961 68.32V39.712L108.121 37.12L110.041 37.6L111.961 38.08L124.345 41.056V33.28L111.961 30.304V12.064L108.121 10.432H111.961H124.345Z" fill="#0A0030"/>
<path d="M148.05 76H156.402H160.242V39.712L156.498 37.12L159.666 37.984L160.242 38.08L172.626 41.056V76H176.466H184.818H188.754V68.224H184.818V44.032V36.256L166.29 31.744L172.626 30.208L184.818 27.232V5.63199L172.626 2.65599H160.242H148.05H144.018V10.432H148.05V27.328L144.018 26.368V34.144L148.05 35.104V68.224H144.018V76H148.05ZM160.242 10.432H172.626V22.432L160.242 25.504V10.432Z" fill="#0A0030"/>
<path d="M223.251 2.65599H194.643V10.432H198.675V27.328L194.643 26.368V34.144L198.675 35.104V68.224H194.643V76H223.251L235.443 73.024V36.256L226.707 34.144L235.443 32.032V5.63199L223.251 2.65599ZM223.251 10.432V33.28L210.867 30.304V12.064L207.027 10.432H223.251ZM223.251 68.224L210.867 68.32V39.712L207.027 37.12L223.251 41.056V68.224Z" fill="#0A0030"/>
<path d="M267.508 10.432V68.224H255.123V10.432H267.508ZM267.508 2.65599H255.123H242.931V73.024L255.123 76H267.508H279.699V5.63199L267.508 2.65599Z" fill="#0A0030"/>
<path d="M301.677 10.432H314.061V37.12L301.677 34.144V10.432ZM314.061 2.65599H301.677H289.486V68.224H285.453V76H289.486H297.837H301.677V43.552L297.837 40.96L301.677 41.92L314.061 44.896V76H317.901H326.254H330.19V68.224H326.254V47.872L330.19 48.832V41.056L326.254 40.096V5.63199L314.061 2.65599Z" fill="#0A0030"/>
<path d="M340.238 76H348.59H352.43V39.712L348.686 37.12L351.854 37.984L352.43 38.08L364.814 41.056V76H368.654H377.006H380.942V68.224H377.006V44.032V36.256L358.478 31.744L364.814 30.208L377.006 27.232V5.63199L364.814 2.65599H352.43H340.238H336.206V10.432H340.238V27.328L336.206 26.368V34.144L340.238 35.104V68.224H336.206V76H340.238ZM352.43 10.432H364.814V22.432L352.43 25.504V10.432Z" fill="#0A0030"/>
<path d="M415.343 2.65599H386.735V10.432H390.767V27.328L386.735 26.368V34.144L390.767 35.104V68.224H386.735V76H415.343L427.535 73.024V5.63199L415.343 2.65599ZM415.343 10.432V68.224L402.959 68.32V39.712L399.119 37.12L400.463 37.504L407.759 39.232V31.456L402.959 30.304V12.064L399.119 10.432H415.343Z" fill="#0A0030"/>
<path d="M27.32 10.432V68.224H14.936V10.432H27.32ZM27.32 2.65599H14.936H2.74399V73.024L14.936 76H27.32H39.512V5.63199L27.32 2.65599Z" stroke="#0A0030" stroke-width="4" mask="url(#path-1-outside-1)"/>
<path d="M86.162 2.65599H77.81H73.97L73.874 54.496L67.634 65.056L61.586 54.592V2.65599H57.746H49.394H45.362V10.432H49.394V51.904L62.642 74.848L71.09 76.96L86.066 50.176L86.162 10.432H90.098V2.65599H86.162Z" stroke="#0A0030" stroke-width="4" mask="url(#path-1-outside-1)"/>
<path d="M124.345 10.432V20.608L136.537 17.632V2.65599H124.345H111.961H108.121H99.7692H95.7372V10.432H99.7692V27.328L95.7372 26.368V34.144L99.7692 35.104V68.224H95.7372V76H99.7692H108.121H111.961H124.345H136.537V53.536L124.345 56.512V68.224L111.961 68.32V39.712L108.121 37.12L110.041 37.6L111.961 38.08L124.345 41.056V33.28L111.961 30.304V12.064L108.121 10.432H111.961H124.345Z" stroke="#0A0030" stroke-width="4" mask="url(#path-1-outside-1)"/>
<path d="M148.05 76H156.402H160.242V39.712L156.498 37.12L159.666 37.984L160.242 38.08L172.626 41.056V76H176.466H184.818H188.754V68.224H184.818V44.032V36.256L166.29 31.744L172.626 30.208L184.818 27.232V5.63199L172.626 2.65599H160.242H148.05H144.018V10.432H148.05V27.328L144.018 26.368V34.144L148.05 35.104V68.224H144.018V76H148.05ZM160.242 10.432H172.626V22.432L160.242 25.504V10.432Z" stroke="#0A0030" stroke-width="4" mask="url(#path-1-outside-1)"/>
<path d="M223.251 2.65599H194.643V10.432H198.675V27.328L194.643 26.368V34.144L198.675 35.104V68.224H194.643V76H223.251L235.443 73.024V36.256L226.707 34.144L235.443 32.032V5.63199L223.251 2.65599ZM223.251 10.432V33.28L210.867 30.304V12.064L207.027 10.432H223.251ZM223.251 68.224L210.867 68.32V39.712L207.027 37.12L223.251 41.056V68.224Z" stroke="#0A0030" stroke-width="4" mask="url(#path-1-outside-1)"/>
<path d="M267.508 10.432V68.224H255.123V10.432H267.508ZM267.508 2.65599H255.123H242.931V73.024L255.123 76H267.508H279.699V5.63199L267.508 2.65599Z" stroke="#0A0030" stroke-width="4" mask="url(#path-1-outside-1)"/>
<path d="M301.677 10.432H314.061V37.12L301.677 34.144V10.432ZM314.061 2.65599H301.677H289.486V68.224H285.453V76H289.486H297.837H301.677V43.552L297.837 40.96L301.677 41.92L314.061 44.896V76H317.901H326.254H330.19V68.224H326.254V47.872L330.19 48.832V41.056L326.254 40.096V5.63199L314.061 2.65599Z" stroke="#0A0030" stroke-width="4" mask="url(#path-1-outside-1)"/>
<path d="M340.238 76H348.59H352.43V39.712L348.686 37.12L351.854 37.984L352.43 38.08L364.814 41.056V76H368.654H377.006H380.942V68.224H377.006V44.032V36.256L358.478 31.744L364.814 30.208L377.006 27.232V5.63199L364.814 2.65599H352.43H340.238H336.206V10.432H340.238V27.328L336.206 26.368V34.144L340.238 35.104V68.224H336.206V76H340.238ZM352.43 10.432H364.814V22.432L352.43 25.504V10.432Z" stroke="#0A0030" stroke-width="4" mask="url(#path-1-outside-1)"/>
<path d="M415.343 2.65599H386.735V10.432H390.767V27.328L386.735 26.368V34.144L390.767 35.104V68.224H386.735V76H415.343L427.535 73.024V5.63199L415.343 2.65599ZM415.343 10.432V68.224L402.959 68.32V39.712L399.119 37.12L400.463 37.504L407.759 39.232V31.456L402.959 30.304V12.064L399.119 10.432H415.343Z" stroke="#0A0030" stroke-width="4" mask="url(#path-1-outside-1)"/>
</svg>
