<svg width="737" height="118" viewBox="0 0 737 118" fill="none" xmlns="http://www.w3.org/2000/svg">
<path d="M50.4 9.19999C43.488 9.19999 36.96 10.544 30.816 13.232C24.672 15.824 19.296 19.424 14.688 24.032C10.176 28.64 6.576 34.016 3.888 40.16C1.296 46.208 0 52.688 0 59.6C0 66.512 1.296 73.04 3.888 79.184C6.576 85.328 10.176 90.704 14.688 95.312C19.296 99.824 24.672 103.424 30.816 106.112C36.96 108.704 43.488 110 50.4 110C57.312 110 63.792 108.704 69.84 106.112C75.984 103.424 81.36 99.824 85.968 95.312C90.576 90.704 94.176 85.328 96.768 79.184C99.456 73.04 100.8 66.512 100.8 59.6C100.8 52.688 99.456 46.208 96.768 40.16C94.176 34.016 90.576 28.64 85.968 24.032C81.36 19.424 75.984 15.824 69.84 13.232C63.792 10.544 57.312 9.19999 50.4 9.19999ZM50.4 99.92C44.832 99.92 39.6 98.864 34.704 96.752C29.808 94.64 25.536 91.76 21.888 88.112C18.24 84.464 15.36 80.192 13.248 75.296C11.136 70.4 10.08 65.168 10.08 59.6C10.08 54.032 11.136 48.8 13.248 43.904C15.36 39.008 18.24 34.736 21.888 31.088C25.536 27.44 29.808 24.56 34.704 22.448C39.6 20.336 44.832 19.28 50.4 19.28C55.968 19.28 61.2 20.336 66.096 22.448C70.992 24.56 75.264 27.44 78.912 31.088C82.56 34.736 85.44 39.008 87.552 43.904C89.664 48.8 90.72 54.032 90.72 59.6C90.72 65.168 89.664 70.4 87.552 75.296C85.44 80.192 82.56 84.464 78.912 88.112C75.264 91.76 70.992 94.64 66.096 96.752C61.2 98.864 55.968 99.92 50.4 99.92ZM50.4 24.32C44.064 24.32 38.16 25.904 32.688 29.072C27.312 32.24 23.04 36.56 19.872 42.032C19.104 43.28 18.912 44.576 19.296 45.92C19.776 47.168 20.544 48.128 21.6 48.8C22.944 49.568 24.24 49.808 25.488 49.52C26.832 49.136 27.84 48.32 28.512 47.072C30.432 43.904 32.832 41.312 35.712 39.296C38.592 37.184 41.808 35.744 45.36 34.976V89.84C45.36 91.184 45.84 92.384 46.8 93.44C47.856 94.4 49.056 94.88 50.4 94.88C51.744 94.88 52.896 94.4 53.856 93.44C54.912 92.384 55.44 91.184 55.44 89.84V34.976C58.992 35.744 62.208 37.184 65.088 39.296C67.968 41.312 70.368 43.904 72.288 47.072C72.96 48.32 73.92 49.136 75.168 49.52C76.512 49.808 77.808 49.568 79.056 48.8C80.208 48.128 80.976 47.168 81.36 45.92C81.84 44.576 81.696 43.28 80.928 42.032C77.76 36.56 73.44 32.24 67.968 29.072C62.592 25.904 56.736 24.32 50.4 24.32ZM146.829 9.19999C139.917 9.19999 133.389 10.544 127.245 13.232C121.101 15.824 115.725 19.424 111.117 24.032C106.605 28.64 103.005 34.016 100.317 40.16C97.7254 46.208 96.4294 52.688 96.4294 59.6C96.4294 66.512 97.7254 73.04 100.317 79.184C103.005 85.328 106.605 90.704 111.117 95.312C115.725 99.824 121.101 103.424 127.245 106.112C133.389 108.704 139.917 110 146.829 110C153.741 110 160.221 108.704 166.269 106.112C172.413 103.424 177.789 99.824 182.397 95.312C187.005 90.704 190.605 85.328 193.197 79.184C195.885 73.04 197.229 66.512 197.229 59.6C197.229 52.688 195.885 46.208 193.197 40.16C190.605 34.016 187.005 28.64 182.397 24.032C177.789 19.424 172.413 15.824 166.269 13.232C160.221 10.544 153.741 9.19999 146.829 9.19999ZM146.829 99.92C141.261 99.92 136.029 98.864 131.133 96.752C126.237 94.64 121.965 91.76 118.317 88.112C114.669 84.464 111.789 80.192 109.677 75.296C107.565 70.4 106.509 65.168 106.509 59.6C106.509 54.032 107.565 48.8 109.677 43.904C111.789 39.008 114.669 34.736 118.317 31.088C121.965 27.44 126.237 24.56 131.133 22.448C136.029 20.336 141.261 19.28 146.829 19.28C152.397 19.28 157.629 20.336 162.525 22.448C167.421 24.56 171.693 27.44 175.341 31.088C178.989 34.736 181.869 39.008 183.981 43.904C186.093 48.8 187.149 54.032 187.149 59.6C187.149 65.168 186.093 70.4 183.981 75.296C181.869 80.192 178.989 84.464 175.341 88.112C171.693 91.76 167.421 94.64 162.525 96.752C157.629 98.864 152.397 99.92 146.829 99.92ZM146.829 24.32C141.933 24.32 137.325 25.28 133.005 27.2C128.781 29.024 125.085 31.52 121.917 34.688C118.749 37.856 116.205 41.6 114.285 45.92C112.461 50.144 111.549 54.704 111.549 59.6C111.549 65.936 113.085 71.84 116.157 77.312C119.325 82.688 123.645 86.96 129.117 90.128C130.461 90.896 131.757 91.088 133.005 90.704C134.349 90.224 135.357 89.456 136.029 88.4C136.797 87.056 136.989 85.76 136.605 84.512C136.317 83.168 135.501 82.16 134.157 81.488C131.085 79.568 128.493 77.168 126.381 74.288C124.269 71.408 122.829 68.192 122.061 64.64H171.453C170.685 68.192 169.245 71.408 167.133 74.288C165.117 77.168 162.525 79.568 159.357 81.488C158.109 82.16 157.293 83.168 156.909 84.512C156.621 85.76 156.861 87.056 157.629 88.4C158.301 89.456 159.261 90.224 160.509 90.704C161.853 91.088 163.149 90.896 164.397 90.128C169.869 86.96 174.189 82.688 177.357 77.312C180.525 71.84 182.109 65.936 182.109 59.6C182.109 54.704 181.149 50.144 179.229 45.92C177.405 41.6 174.909 37.856 171.741 34.688C168.573 31.52 164.829 29.024 160.509 27.2C156.285 25.28 151.725 24.32 146.829 24.32ZM146.829 34.4C149.805 34.4 152.685 34.928 155.469 35.984C158.253 36.944 160.701 38.336 162.813 40.16C165.021 41.984 166.845 44.144 168.285 46.64C169.821 49.04 170.877 51.68 171.453 54.56H122.061C122.637 51.68 123.693 49.04 125.229 46.64C126.765 44.144 128.589 41.984 130.701 40.16C132.909 38.336 135.357 36.944 138.045 35.984C140.829 34.928 143.757 34.4 146.829 34.4ZM243.259 9.19999C236.347 9.19999 229.819 10.544 223.675 13.232C217.531 15.824 212.155 19.424 207.547 24.032C203.035 28.64 199.435 34.016 196.747 40.16C194.155 46.208 192.859 52.688 192.859 59.6C192.859 66.512 194.155 73.04 196.747 79.184C199.435 85.328 203.035 90.704 207.547 95.312C212.155 99.824 217.531 103.424 223.675 106.112C229.819 108.704 236.347 110 243.259 110C250.171 110 256.651 108.704 262.699 106.112C268.843 103.424 274.219 99.824 278.827 95.312C283.435 90.704 287.035 85.328 289.627 79.184C292.315 73.04 293.659 66.512 293.659 59.6C293.659 52.688 292.315 46.208 289.627 40.16C287.035 34.016 283.435 28.64 278.827 24.032C274.219 19.424 268.843 15.824 262.699 13.232C256.651 10.544 250.171 9.19999 243.259 9.19999ZM243.259 99.92C237.691 99.92 232.459 98.864 227.563 96.752C222.667 94.64 218.395 91.76 214.747 88.112C211.099 84.464 208.219 80.192 206.107 75.296C203.995 70.4 202.939 65.168 202.939 59.6C202.939 54.032 203.995 48.8 206.107 43.904C208.219 39.008 211.099 34.736 214.747 31.088C218.395 27.44 222.667 24.56 227.563 22.448C232.459 20.336 237.691 19.28 243.259 19.28C248.827 19.28 254.059 20.336 258.955 22.448C263.851 24.56 268.123 27.44 271.771 31.088C275.419 34.736 278.299 39.008 280.411 43.904C282.523 48.8 283.579 54.032 283.579 59.6C283.579 65.168 282.523 70.4 280.411 75.296C278.299 80.192 275.419 84.464 271.771 88.112C268.123 91.76 263.851 94.64 258.955 96.752C254.059 98.864 248.827 99.92 243.259 99.92ZM265.147 72.272C262.939 76.208 259.819 79.28 255.787 81.488C251.851 83.696 247.675 84.8 243.259 84.8C239.803 84.8 236.539 84.128 233.467 82.784C230.395 81.44 227.707 79.664 225.403 77.456C223.195 75.152 221.419 72.464 220.075 69.392C218.731 66.32 218.059 63.056 218.059 59.6C218.059 55.184 219.163 51.008 221.371 47.072C223.579 43.04 226.651 39.92 230.587 37.712C231.931 37.04 232.747 36.08 233.035 34.832C233.419 33.488 233.227 32.192 232.459 30.944C231.787 29.792 230.779 29.024 229.435 28.64C228.187 28.16 226.891 28.304 225.547 29.072C220.075 32.24 215.755 36.56 212.587 42.032C209.515 47.408 207.979 53.264 207.979 59.6C207.979 64.496 208.891 69.104 210.715 73.424C212.635 77.648 215.179 81.344 218.347 84.512C221.515 87.68 225.211 90.224 229.435 92.144C233.755 93.968 238.363 94.88 243.259 94.88C249.595 94.88 255.451 93.344 260.827 90.272C266.299 87.104 270.619 82.784 273.787 77.312C274.555 75.968 274.699 74.672 274.219 73.424C273.835 72.08 273.067 71.072 271.915 70.4C270.667 69.632 269.371 69.44 268.027 69.824C266.779 70.112 265.819 70.928 265.147 72.272ZM339.688 9.19999C332.776 9.19999 326.248 10.544 320.104 13.232C313.96 15.824 308.584 19.424 303.976 24.032C299.464 28.64 295.864 34.016 293.176 40.16C290.584 46.208 289.288 52.688 289.288 59.6C289.288 66.512 290.584 73.04 293.176 79.184C295.864 85.328 299.464 90.704 303.976 95.312C308.584 99.824 313.96 103.424 320.104 106.112C326.248 108.704 332.776 110 339.688 110C346.6 110 353.08 108.704 359.128 106.112C365.272 103.424 370.648 99.824 375.256 95.312C379.864 90.704 383.464 85.328 386.056 79.184C388.744 73.04 390.088 66.512 390.088 59.6C390.088 52.688 388.744 46.208 386.056 40.16C383.464 34.016 379.864 28.64 375.256 24.032C370.648 19.424 365.272 15.824 359.128 13.232C353.08 10.544 346.6 9.19999 339.688 9.19999ZM339.688 99.92C334.12 99.92 328.888 98.864 323.992 96.752C319.096 94.64 314.824 91.76 311.176 88.112C307.528 84.464 304.648 80.192 302.536 75.296C300.424 70.4 299.368 65.168 299.368 59.6C299.368 54.032 300.424 48.8 302.536 43.904C304.648 39.008 307.528 34.736 311.176 31.088C314.824 27.44 319.096 24.56 323.992 22.448C328.888 20.336 334.12 19.28 339.688 19.28C345.256 19.28 350.488 20.336 355.384 22.448C360.28 24.56 364.552 27.44 368.2 31.088C371.848 34.736 374.728 39.008 376.84 43.904C378.952 48.8 380.008 54.032 380.008 59.6C380.008 65.168 378.952 70.4 376.84 75.296C374.728 80.192 371.848 84.464 368.2 88.112C364.552 91.76 360.28 94.64 355.384 96.752C350.488 98.864 345.256 99.92 339.688 99.92ZM355.528 28.064C354.28 27.488 352.984 27.44 351.64 27.92C350.392 28.304 349.432 29.12 348.76 30.368C348.088 31.712 347.944 33.056 348.328 34.4C348.808 35.648 349.72 36.56 351.064 37.136C353.08 38.192 354.904 39.488 356.536 41.024C358.264 42.56 359.8 44.288 361.144 46.208L352.792 54.56H314.92C315.688 51.008 317.128 47.792 319.24 44.912C321.352 42.032 323.944 39.632 327.016 37.712C328.36 37.04 329.176 36.08 329.464 34.832C329.848 33.488 329.656 32.192 328.888 30.944C328.216 29.792 327.208 29.024 325.864 28.64C324.616 28.16 323.32 28.304 321.976 29.072C316.504 32.24 312.184 36.56 309.016 42.032C305.944 47.408 304.408 53.264 304.408 59.6C304.408 65.936 305.944 71.84 309.016 77.312C312.184 82.688 316.504 86.96 321.976 90.128C323.32 90.896 324.616 91.088 325.864 90.704C327.208 90.224 328.216 89.456 328.888 88.4C329.656 87.056 329.848 85.76 329.464 84.512C329.176 83.168 328.36 82.16 327.016 81.488C323.944 79.568 321.352 77.168 319.24 74.288C317.128 71.408 315.688 68.192 314.92 64.64H352.792L361.144 72.992C359.8 74.912 358.264 76.64 356.536 78.176C354.904 79.712 353.08 81.008 351.064 82.064C349.72 82.736 348.808 83.744 348.328 85.088C347.944 86.336 348.088 87.584 348.76 88.832C349.432 90.176 350.392 91.088 351.64 91.568C352.984 91.952 354.28 91.808 355.528 91.136C359.08 89.312 362.248 86.96 365.032 84.08C367.816 81.2 370.12 77.936 371.944 74.288C372.328 73.232 372.376 72.176 372.088 71.12C371.896 70.064 371.416 69.152 370.648 68.384L361.864 59.6L370.648 50.816C372.28 49.184 372.712 47.264 371.944 45.056C370.12 41.408 367.816 38.144 365.032 35.264C362.248 32.288 359.08 29.888 355.528 28.064ZM436.118 9.19999C429.206 9.19999 422.678 10.544 416.534 13.232C410.39 15.824 405.013 19.424 400.405 24.032C395.893 28.64 392.293 34.016 389.605 40.16C387.013 46.208 385.717 52.688 385.717 59.6C385.717 66.512 387.013 73.04 389.605 79.184C392.293 85.328 395.893 90.704 400.405 95.312C405.013 99.824 410.39 103.424 416.534 106.112C422.678 108.704 429.206 110 436.118 110C443.03 110 449.51 108.704 455.558 106.112C461.702 103.424 467.078 99.824 471.685 95.312C476.294 90.704 479.894 85.328 482.486 79.184C485.174 73.04 486.518 66.512 486.518 59.6C486.518 52.688 485.174 46.208 482.486 40.16C479.894 34.016 476.294 28.64 471.685 24.032C467.078 19.424 461.702 15.824 455.558 13.232C449.51 10.544 443.03 9.19999 436.118 9.19999ZM436.118 99.92C430.55 99.92 425.318 98.864 420.422 96.752C415.526 94.64 411.254 91.76 407.606 88.112C403.957 84.464 401.077 80.192 398.965 75.296C396.853 70.4 395.797 65.168 395.797 59.6C395.797 54.032 396.853 48.8 398.965 43.904C401.077 39.008 403.957 34.736 407.606 31.088C411.254 27.44 415.526 24.56 420.422 22.448C425.318 20.336 430.55 19.28 436.118 19.28C441.686 19.28 446.918 20.336 451.814 22.448C456.71 24.56 460.982 27.44 464.63 31.088C468.278 34.736 471.158 39.008 473.27 43.904C475.382 48.8 476.438 54.032 476.438 59.6C476.438 65.168 475.382 70.4 473.27 75.296C471.158 80.192 468.278 84.464 464.63 88.112C460.982 91.76 456.71 94.64 451.814 96.752C446.918 98.864 441.686 99.92 436.118 99.92ZM436.118 24.32C431.222 24.32 426.614 25.28 422.293 27.2C418.069 29.024 414.373 31.52 411.205 34.688C408.037 37.856 405.493 41.6 403.573 45.92C401.749 50.144 400.837 54.704 400.837 59.6C400.837 64.496 401.749 69.104 403.573 73.424C405.493 77.648 408.037 81.344 411.205 84.512C414.373 87.68 418.069 90.224 422.293 92.144C426.614 93.968 431.222 94.88 436.118 94.88C442.454 94.88 448.31 93.344 453.686 90.272C459.158 87.104 463.478 82.784 466.646 77.312C467.414 75.968 467.558 74.672 467.077 73.424C466.694 72.08 465.926 71.072 464.774 70.4C463.526 69.632 462.23 69.44 460.886 69.824C459.637 70.112 458.678 70.928 458.006 72.272C455.798 76.208 452.678 79.28 448.645 81.488C444.71 83.696 440.534 84.8 436.118 84.8C433.046 84.8 430.118 84.32 427.333 83.36C424.645 82.304 422.197 80.912 419.989 79.184C417.877 77.36 416.053 75.2 414.517 72.704C412.982 70.208 411.926 67.52 411.349 64.64H436.118C437.462 64.64 438.614 64.16 439.574 63.2C440.63 62.144 441.158 60.944 441.158 59.6C441.158 58.256 440.63 57.104 439.574 56.144C438.614 55.088 437.462 54.56 436.118 54.56H411.349C411.926 51.68 412.982 49.04 414.517 46.64C416.053 44.144 417.877 41.984 419.989 40.16C422.197 38.336 424.645 36.944 427.333 35.984C430.118 34.928 433.046 34.4 436.118 34.4C440.534 34.4 444.71 35.504 448.645 37.712C452.678 39.92 455.798 43.04 458.006 47.072C458.678 48.32 459.637 49.136 460.886 49.52C462.23 49.808 463.526 49.568 464.774 48.8C465.926 48.128 466.694 47.168 467.077 45.92C467.558 44.576 467.414 43.28 466.646 42.032C463.478 36.56 459.158 32.24 453.686 29.072C448.31 25.904 442.454 24.32 436.118 24.32ZM532.547 9.19999C525.635 9.19999 519.107 10.544 512.963 13.232C506.819 15.824 501.443 19.424 496.835 24.032C492.323 28.64 488.723 34.016 486.035 40.16C483.443 46.208 482.147 52.688 482.147 59.6C482.147 66.512 483.443 73.04 486.035 79.184C488.723 85.328 492.323 90.704 496.835 95.312C501.443 99.824 506.819 103.424 512.963 106.112C519.107 108.704 525.635 110 532.547 110C539.459 110 545.939 108.704 551.987 106.112C558.131 103.424 563.507 99.824 568.115 95.312C572.723 90.704 576.323 85.328 578.915 79.184C581.603 73.04 582.947 66.512 582.947 59.6C582.947 52.688 581.603 46.208 578.915 40.16C576.323 34.016 572.723 28.64 568.115 24.032C563.507 19.424 558.131 15.824 551.987 13.232C545.939 10.544 539.459 9.19999 532.547 9.19999ZM532.547 99.92C526.979 99.92 521.747 98.864 516.851 96.752C511.955 94.64 507.683 91.76 504.035 88.112C500.387 84.464 497.507 80.192 495.395 75.296C493.283 70.4 492.227 65.168 492.227 59.6C492.227 54.032 493.283 48.8 495.395 43.904C497.507 39.008 500.387 34.736 504.035 31.088C507.683 27.44 511.955 24.56 516.851 22.448C521.747 20.336 526.979 19.28 532.547 19.28C538.115 19.28 543.347 20.336 548.243 22.448C553.139 24.56 557.411 27.44 561.059 31.088C564.707 34.736 567.587 39.008 569.699 43.904C571.811 48.8 572.867 54.032 572.867 59.6C572.867 65.168 571.811 70.4 569.699 75.296C567.587 80.192 564.707 84.464 561.059 88.112C557.411 91.76 553.139 94.64 548.243 96.752C543.347 98.864 538.115 99.92 532.547 99.92ZM532.547 24.32C526.211 24.32 520.307 25.904 514.835 29.072C509.459 32.24 505.187 36.56 502.019 42.032C501.251 43.28 501.059 44.576 501.443 45.92C501.923 47.168 502.691 48.128 503.747 48.8C505.091 49.568 506.387 49.808 507.635 49.52C508.979 49.136 509.987 48.32 510.659 47.072C512.579 43.904 514.979 41.312 517.859 39.296C520.739 37.184 523.955 35.744 527.507 34.976V89.84C527.507 91.184 527.987 92.384 528.947 93.44C530.003 94.4 531.203 94.88 532.547 94.88C533.891 94.88 535.043 94.4 536.003 93.44C537.059 92.384 537.587 91.184 537.587 89.84V34.976C541.139 35.744 544.355 37.184 547.235 39.296C550.115 41.312 552.515 43.904 554.435 47.072C555.107 48.32 556.067 49.136 557.315 49.52C558.659 49.808 559.955 49.568 561.203 48.8C562.355 48.128 563.123 47.168 563.507 45.92C563.987 44.576 563.843 43.28 563.075 42.032C559.907 36.56 555.587 32.24 550.115 29.072C544.739 25.904 538.883 24.32 532.547 24.32Z" fill="black"/>
<path d="M596.34 71V45.656H616.968C618.36 45.656 619.548 45.788 620.532 46.052C621.54 46.292 622.344 46.652 622.944 47.132C623.568 47.588 624.024 48.164 624.312 48.86C624.6 49.532 624.744 50.288 624.744 51.128V53.468C624.744 54.572 624.468 55.508 623.916 56.276C623.388 57.02 622.668 57.488 621.756 57.68C622.716 57.944 623.508 58.4 624.132 59.048C624.756 59.672 625.068 60.596 625.068 61.82V65.528C625.068 66.248 624.936 66.944 624.672 67.616C624.432 68.264 624 68.84 623.376 69.344C622.776 69.848 621.96 70.256 620.928 70.568C619.896 70.856 618.6 71 617.04 71H596.34ZM620.28 61.892C620.28 61.1 619.98 60.548 619.38 60.236C618.78 59.9 618 59.732 617.04 59.732H601.128V67.256H617.04C618 67.256 618.78 67.076 619.38 66.716C619.98 66.356 620.28 65.66 620.28 64.628V61.892ZM619.956 51.38C619.956 50.684 619.74 50.18 619.308 49.868C618.876 49.556 618.096 49.4 616.968 49.4H601.128V55.988H616.968C618.096 55.988 618.876 55.832 619.308 55.52C619.74 55.208 619.956 54.704 619.956 54.008V51.38ZM640.077 71V60.704L623.805 45.656H629.925L642.453 57.248L654.981 45.656H661.029L644.865 60.704V71H640.077Z" fill="black"/>
<path d="M684.152 23V20.84L701.24 8.84H684.152V6.104H706.856V8.264L689.696 20.264H706.856V23H684.152ZM708.11 23V6.104H725.486V8.6H711.302V12.824H724.766V15.32H711.302V20.504H725.486V23H708.11ZM687.752 45.76V52H684.56V35.104H698.408C699.368 35.104 700.184 35.208 700.856 35.416C701.528 35.608 702.072 35.888 702.488 36.256C702.92 36.608 703.232 37.032 703.424 37.528C703.616 38.024 703.712 38.576 703.712 39.184V41.68C703.712 42.288 703.616 42.84 703.424 43.336C703.232 43.832 702.92 44.264 702.488 44.632C702.072 44.984 701.528 45.264 700.856 45.472C700.184 45.664 699.368 45.76 698.408 45.76H687.752ZM700.52 39.16C700.52 38.12 699.816 37.6 698.408 37.6H687.752V43.264H698.408C699.816 43.264 700.52 42.744 700.52 41.704V39.16ZM721.751 52V44.32H707.927V52H704.735V35.104H707.927V41.824H721.751V35.104H724.943V52H721.751ZM693.848 81V74.136L683 64.104H687.08L695.432 71.832L703.784 64.104H707.816L697.04 74.136V81H693.848ZM724.236 81L720.276 73.464H711.372V81H708.18V64.104H722.532C723.492 64.104 724.308 64.208 724.98 64.416C725.652 64.608 726.196 64.888 726.612 65.256C727.044 65.608 727.356 66.032 727.548 66.528C727.74 67.024 727.836 67.576 727.836 68.184V69.384C727.836 70.472 727.516 71.384 726.876 72.12C726.236 72.84 725.164 73.272 723.66 73.416L727.644 81H724.236ZM724.644 68.16C724.644 67.12 723.94 66.6 722.532 66.6H711.372V70.968H722.532C723.94 70.968 724.644 70.448 724.644 69.408V68.16ZM689.792 110C688.832 110 688.016 109.904 687.344 109.712C686.672 109.504 686.12 109.224 685.688 108.872C685.272 108.504 684.968 108.072 684.776 107.576C684.584 107.08 684.488 106.528 684.488 105.92V93.104H687.68V105.944C687.68 106.984 688.384 107.504 689.792 107.504H700.28C701.688 107.504 702.392 106.984 702.392 105.944V93.104H705.584V105.92C705.584 106.528 705.52 107.08 705.392 107.576C705.28 108.072 705.048 108.504 704.696 108.872C704.36 109.224 703.888 109.504 703.28 109.712C702.688 109.904 701.912 110 700.952 110H689.792ZM707.646 110V107.504H722.334C723.742 107.504 724.446 106.984 724.446 105.944V103.808C724.446 102.768 723.742 102.248 722.334 102.248H712.398C711.438 102.248 710.622 102.152 709.95 101.96C709.278 101.752 708.726 101.472 708.294 101.12C707.878 100.752 707.574 100.32 707.382 99.824C707.19 99.328 707.094 98.776 707.094 98.168V97.184C707.094 96.576 707.19 96.024 707.382 95.528C707.574 95.032 707.878 94.608 708.294 94.256C708.726 93.888 709.278 93.608 709.95 93.416C710.622 93.208 711.438 93.104 712.398 93.104H726.702V95.6H712.398C710.99 95.6 710.286 96.12 710.286 97.16V98.192C710.286 99.232 710.99 99.752 712.398 99.752H722.334C723.294 99.752 724.11 99.856 724.782 100.064C725.454 100.256 725.998 100.536 726.414 100.904C726.846 101.256 727.158 101.68 727.35 102.176C727.542 102.672 727.638 103.224 727.638 103.832V105.92C727.638 106.528 727.542 107.08 727.35 107.576C727.158 108.072 726.846 108.504 726.414 108.872C725.998 109.224 725.454 109.504 724.782 109.712C724.11 109.904 723.294 110 722.334 110H707.646Z" fill="black"/>
<rect x="677.5" y="1.5" width="58" height="115" stroke="black" stroke-width="3"/>
</svg>
