<svg width="249" height="48" viewBox="0 0 249 48" fill="none" xmlns="http://www.w3.org/2000/svg">
<mask id="path-1-outside-1" maskUnits="userSpaceOnUse" x="0" y="0" width="249" height="48" fill="black">
<rect fill="white" width="249" height="48"/>
<path d="M23.9971 2C20.9804 2 18.1312 2.58667 15.4497 3.76C12.7681 4.89143 10.4217 6.46286 8.41058 8.47429C6.44132 10.4857 4.8701 12.8324 3.69692 15.5143C2.56564 18.1543 2 20.9829 2 24C2 27.0171 2.56564 29.8667 3.69692 32.5486C4.8701 35.2305 6.44132 37.5771 8.41058 39.5886C10.4217 41.5581 12.7681 43.1295 15.4497 44.3029C18.1312 45.4343 20.9804 46 23.9971 46C27.0138 46 29.842 45.4343 32.4817 44.3029C35.1632 43.1295 37.5096 41.5581 39.5208 39.5886C41.5319 37.5771 43.1031 35.2305 44.2344 32.5486C45.4076 29.8667 45.9942 27.0171 45.9942 24C45.9942 20.9829 45.4076 18.1543 44.2344 15.5143C43.1031 12.8324 41.5319 10.4857 39.5208 8.47429C37.5096 6.46286 35.1632 4.89143 32.4817 3.76C29.842 2.58667 27.0138 2 23.9971 2ZM23.9971 41.6C21.5669 41.6 19.2834 41.139 17.1466 40.2171C15.0097 39.2952 13.1452 38.0381 11.553 36.4457C9.96085 34.8533 8.70388 32.9886 7.78209 30.8514C6.86031 28.7143 6.39942 26.4305 6.39942 24C6.39942 21.5695 6.86031 19.2857 7.78209 17.1486C8.70388 15.0114 9.96085 13.1467 11.553 11.5543C13.1452 9.96191 15.0097 8.70476 17.1466 7.78286C19.2834 6.86095 21.5669 6.4 23.9971 6.4C26.4273 6.4 28.7108 6.86095 30.8476 7.78286C32.9845 8.70476 34.849 9.96191 36.4412 11.5543C38.0333 13.1467 39.2903 15.0114 40.2121 17.1486C41.1339 19.2857 41.5948 21.5695 41.5948 24C41.5948 26.4305 41.1339 28.7143 40.2121 30.8514C39.2903 32.9886 38.0333 34.8533 36.4412 36.4457C34.849 38.0381 32.9845 39.2952 30.8476 40.2171C28.7108 41.139 26.4273 41.6 23.9971 41.6ZM23.9971 8.6C21.2317 8.6 18.6549 9.29143 16.2667 10.6743C13.9203 12.0571 12.0558 13.9429 10.6731 16.3314C10.3379 16.8762 10.2541 17.4419 10.4217 18.0286C10.6312 18.5733 10.9664 18.9924 11.4273 19.2857C12.0139 19.621 12.5796 19.7257 13.1242 19.6C13.7108 19.4324 14.1508 19.0762 14.4441 18.5314C15.2821 17.1486 16.3295 16.0171 17.5865 15.1371C18.8435 14.2152 20.2471 13.5867 21.7974 13.2514V37.2C21.7974 37.7867 22.0069 38.3105 22.4259 38.7714C22.8868 39.1905 23.4105 39.4 23.9971 39.4C24.5837 39.4 25.0865 39.1905 25.5055 38.7714C25.9664 38.3105 26.1968 37.7867 26.1968 37.2V13.2514C27.7471 13.5867 29.1507 14.2152 30.4077 15.1371C31.6647 16.0171 32.7121 17.1486 33.5501 18.5314C33.8434 19.0762 34.2624 19.4324 34.8071 19.6C35.3937 19.7257 35.9593 19.621 36.504 19.2857C37.0068 18.9924 37.342 18.5733 37.5096 18.0286C37.7191 17.4419 37.6562 16.8762 37.3211 16.3314C35.9384 13.9429 34.0529 12.0571 31.6647 10.6743C29.3183 9.29143 26.7624 8.6 23.9971 8.6Z"/>
<path d="M64.1983 2C61.1815 2 58.3324 2.58667 55.6508 3.76C52.9693 4.89143 50.6229 6.46286 48.6117 8.47429C46.6425 10.4857 45.0713 12.8324 43.8981 15.5143C42.7668 18.1543 42.2012 20.9829 42.2012 24C42.2012 27.0171 42.7668 29.8667 43.8981 32.5486C45.0713 35.2305 46.6425 37.5771 48.6117 39.5886C50.6229 41.5581 52.9693 43.1295 55.6508 44.3029C58.3324 45.4343 61.1815 46 64.1983 46C67.215 46 70.0432 45.4343 72.6828 44.3029C75.3644 43.1295 77.7108 41.5581 79.7219 39.5886C81.7331 37.5771 83.3043 35.2305 84.4356 32.5486C85.6088 29.8667 86.1954 27.0171 86.1954 24C86.1954 20.9829 85.6088 18.1543 84.4356 15.5143C83.3043 12.8324 81.7331 10.4857 79.7219 8.47429C77.7108 6.46286 75.3644 4.89143 72.6828 3.76C70.0432 2.58667 67.215 2 64.1983 2ZM64.1983 41.6C61.7681 41.6 59.4846 41.139 57.3477 40.2171C55.2109 39.2952 53.3464 38.0381 51.7542 36.4457C50.162 34.8533 48.905 32.9886 47.9833 30.8514C47.0615 28.7143 46.6006 26.4305 46.6006 24C46.6006 21.5695 47.0615 19.2857 47.9833 17.1486C48.905 15.0114 50.162 13.1467 51.7542 11.5543C53.3464 9.96191 55.2109 8.70476 57.3477 7.78286C59.4846 6.86095 61.7681 6.4 64.1983 6.4C66.6284 6.4 68.9119 6.86095 71.0488 7.78286C73.1856 8.70476 75.0502 9.96191 76.6423 11.5543C78.2345 13.1467 79.4915 15.0114 80.4133 17.1486C81.335 19.2857 81.7959 21.5695 81.7959 24C81.7959 26.4305 81.335 28.7143 80.4133 30.8514C79.4915 32.9886 78.2345 34.8533 76.6423 36.4457C75.0502 38.0381 73.1856 39.2952 71.0488 40.2171C68.9119 41.139 66.6284 41.6 64.1983 41.6ZM64.1983 8.6C62.0614 8.6 60.0502 9.01905 58.1648 9.85714C56.3212 10.6533 54.7081 11.7429 53.3254 13.1257C51.9427 14.5086 50.8324 16.1429 49.9944 18.0286C49.1983 19.8724 48.8003 21.8629 48.8003 24C48.8003 26.7657 49.4707 29.3429 50.8115 31.7314C52.1941 34.0781 54.0796 35.9429 56.4678 37.3257C57.0544 37.661 57.6201 37.7448 58.1648 37.5771C58.7514 37.3676 59.1913 37.0324 59.4846 36.5714C59.8198 35.9848 59.9036 35.419 59.736 34.8743C59.6103 34.2876 59.2541 33.8476 58.6676 33.5543C57.3268 32.7162 56.1955 31.6686 55.2737 30.4114C54.3519 29.1543 53.7234 27.7505 53.3883 26.2H74.9454C74.6102 27.7505 73.9817 29.1543 73.0599 30.4114C72.1801 31.6686 71.0488 32.7162 69.6661 33.5543C69.1214 33.8476 68.7653 34.2876 68.5977 34.8743C68.472 35.419 68.5767 35.9848 68.9119 36.5714C69.2052 37.0324 69.6242 37.3676 70.1689 37.5771C70.7555 37.7448 71.3211 37.661 71.8658 37.3257C74.2541 35.9429 76.1395 34.0781 77.5222 31.7314C78.9049 29.3429 79.5962 26.7657 79.5962 24C79.5962 21.8629 79.1772 19.8724 78.3392 18.0286C77.5432 16.1429 76.4538 14.5086 75.0711 13.1257C73.6884 11.7429 72.0544 10.6533 70.1689 9.85714C68.3253 9.01905 66.3351 8.6 64.1983 8.6ZM64.1983 13C65.4971 13 66.7541 13.2305 67.9692 13.6914C69.1843 14.1105 70.2527 14.7181 71.1745 15.5143C72.1382 16.3105 72.9342 17.2533 73.5627 18.3429C74.2331 19.3905 74.694 20.5429 74.9454 21.8H53.3883C53.6397 20.5429 54.1005 19.3905 54.7709 18.3429C55.4413 17.2533 56.2374 16.3105 57.1592 15.5143C58.1229 14.7181 59.1913 14.1105 60.3645 13.6914C61.5796 13.2305 62.8575 13 64.1983 13Z"/>
<path d="M104.399 2C101.383 2 98.5335 2.58667 95.852 3.76C93.1704 4.89143 90.8241 6.46286 88.8129 8.47429C86.8436 10.4857 85.2724 12.8324 84.0992 15.5143C82.968 18.1543 82.4023 20.9829 82.4023 24C82.4023 27.0171 82.968 29.8667 84.0992 32.5486C85.2724 35.2305 86.8436 37.5771 88.8129 39.5886C90.8241 41.5581 93.1704 43.1295 95.852 44.3029C98.5335 45.4343 101.383 46 104.399 46C107.416 46 110.244 45.4343 112.884 44.3029C115.566 43.1295 117.912 41.5581 119.923 39.5886C121.934 37.5771 123.505 35.2305 124.637 32.5486C125.81 29.8667 126.397 27.0171 126.397 24C126.397 20.9829 125.81 18.1543 124.637 15.5143C123.505 12.8324 121.934 10.4857 119.923 8.47429C117.912 6.46286 115.566 4.89143 112.884 3.76C110.244 2.58667 107.416 2 104.399 2ZM104.399 41.6C101.969 41.6 99.6858 41.139 97.5489 40.2171C95.412 39.2952 93.5475 38.0381 91.9553 36.4457C90.3632 34.8533 89.1062 32.9886 88.1844 30.8514C87.2626 28.7143 86.8017 26.4305 86.8017 24C86.8017 21.5695 87.2626 19.2857 88.1844 17.1486C89.1062 15.0114 90.3632 13.1467 91.9553 11.5543C93.5475 9.96191 95.412 8.70476 97.5489 7.78286C99.6858 6.86095 101.969 6.4 104.399 6.4C106.83 6.4 109.113 6.86095 111.25 7.78286C113.387 8.70476 115.251 9.96191 116.843 11.5543C118.436 13.1467 119.693 15.0114 120.614 17.1486C121.536 19.2857 121.997 21.5695 121.997 24C121.997 26.4305 121.536 28.7143 120.614 30.8514C119.693 32.9886 118.436 34.8533 116.843 36.4457C115.251 38.0381 113.387 39.2952 111.25 40.2171C109.113 41.139 106.83 41.6 104.399 41.6ZM113.952 29.5314C112.989 31.2495 111.627 32.5905 109.867 33.5543C108.149 34.5181 106.327 35 104.399 35C102.891 35 101.466 34.7067 100.126 34.12C98.7849 33.5333 97.6117 32.7581 96.6062 31.7943C95.6425 30.7886 94.8673 29.6152 94.2808 28.2743C93.6942 26.9333 93.4009 25.5086 93.4009 24C93.4009 22.0724 93.8827 20.2495 94.8464 18.5314C95.8101 16.7714 97.1509 15.4095 98.8687 14.4457C99.4553 14.1524 99.8115 13.7333 99.9371 13.1886C100.105 12.6019 100.021 12.0362 99.6858 11.4914C99.3925 10.9886 98.9525 10.6533 98.3659 10.4857C97.8212 10.2762 97.2556 10.339 96.669 10.6743C94.2808 12.0571 92.3953 13.9429 91.0126 16.3314C89.6718 18.6781 89.0015 21.2343 89.0015 24C89.0015 26.1371 89.3995 28.1486 90.1956 30.0343C91.0336 31.8781 92.1439 33.4914 93.5266 34.8743C94.9092 36.2571 96.5224 37.3676 98.3659 38.2057C100.251 39.0019 102.263 39.4 104.399 39.4C107.165 39.4 109.721 38.7295 112.067 37.3886C114.455 36.0057 116.341 34.12 117.723 31.7314C118.059 31.1448 118.121 30.579 117.912 30.0343C117.744 29.4476 117.409 29.0076 116.906 28.7143C116.362 28.379 115.796 28.2952 115.209 28.4629C114.665 28.5886 114.246 28.9448 113.952 29.5314Z"/>
<path d="M144.601 2C141.584 2 138.735 2.58667 136.053 3.76C133.372 4.89143 131.025 6.46286 129.014 8.47429C127.045 10.4857 125.474 12.8324 124.3 15.5143C123.169 18.1543 122.603 20.9829 122.603 24C122.603 27.0171 123.169 29.8667 124.3 32.5486C125.474 35.2305 127.045 37.5771 129.014 39.5886C131.025 41.5581 133.372 43.1295 136.053 44.3029C138.735 45.4343 141.584 46 144.601 46C147.617 46 150.446 45.4343 153.085 44.3029C155.767 43.1295 158.113 41.5581 160.124 39.5886C162.135 37.5771 163.707 35.2305 164.838 32.5486C166.011 29.8667 166.598 27.0171 166.598 24C166.598 20.9829 166.011 18.1543 164.838 15.5143C163.707 12.8324 162.135 10.4857 160.124 8.47429C158.113 6.46286 155.767 4.89143 153.085 3.76C150.446 2.58667 147.617 2 144.601 2ZM144.601 41.6C142.17 41.6 139.887 41.139 137.75 40.2171C135.613 39.2952 133.749 38.0381 132.157 36.4457C130.564 34.8533 129.307 32.9886 128.386 30.8514C127.464 28.7143 127.003 26.4305 127.003 24C127.003 21.5695 127.464 19.2857 128.386 17.1486C129.307 15.0114 130.564 13.1467 132.157 11.5543C133.749 9.96191 135.613 8.70476 137.75 7.78286C139.887 6.86095 142.17 6.4 144.601 6.4C147.031 6.4 149.314 6.86095 151.451 7.78286C153.588 8.70476 155.452 9.96191 157.045 11.5543C158.637 13.1467 159.894 15.0114 160.816 17.1486C161.737 19.2857 162.198 21.5695 162.198 24C162.198 26.4305 161.737 28.7143 160.816 30.8514C159.894 32.9886 158.637 34.8533 157.045 36.4457C155.452 38.0381 153.588 39.2952 151.451 40.2171C149.314 41.139 147.031 41.6 144.601 41.6ZM151.514 10.2343C150.969 9.98286 150.404 9.9619 149.817 10.1714C149.272 10.339 148.853 10.6952 148.56 11.24C148.267 11.8267 148.204 12.4133 148.372 13C148.581 13.5448 148.979 13.9429 149.566 14.1943C150.446 14.6552 151.242 15.221 151.954 15.8914C152.708 16.5619 153.378 17.3162 153.965 18.1543L150.32 21.8H133.791C134.126 20.2495 134.754 18.8457 135.676 17.5886C136.598 16.3314 137.729 15.2838 139.07 14.4457C139.656 14.1524 140.013 13.7333 140.138 13.1886C140.306 12.6019 140.222 12.0362 139.887 11.4914C139.594 10.9886 139.154 10.6533 138.567 10.4857C138.022 10.2762 137.457 10.339 136.87 10.6743C134.482 12.0571 132.596 13.9429 131.214 16.3314C129.873 18.6781 129.203 21.2343 129.203 24C129.203 26.7657 129.873 29.3429 131.214 31.7314C132.596 34.0781 134.482 35.9429 136.87 37.3257C137.457 37.661 138.022 37.7448 138.567 37.5771C139.154 37.3676 139.594 37.0324 139.887 36.5714C140.222 35.9848 140.306 35.419 140.138 34.8743C140.013 34.2876 139.656 33.8476 139.07 33.5543C137.729 32.7162 136.598 31.6686 135.676 30.4114C134.754 29.1543 134.126 27.7505 133.791 26.2H150.32L153.965 29.8457C153.378 30.6838 152.708 31.4381 151.954 32.1086C151.242 32.779 150.446 33.3448 149.566 33.8057C148.979 34.099 148.581 34.539 148.372 35.1257C148.204 35.6705 148.267 36.2152 148.56 36.76C148.853 37.3467 149.272 37.7448 149.817 37.9543C150.404 38.1219 150.969 38.059 151.514 37.7657C153.064 36.9695 154.447 35.9429 155.662 34.6857C156.877 33.4286 157.883 32.0038 158.679 30.4114C158.846 29.9505 158.867 29.4895 158.742 29.0286C158.658 28.5676 158.448 28.1695 158.113 27.8343L154.279 24L158.113 20.1657C158.825 19.4533 159.014 18.6152 158.679 17.6514C157.883 16.059 156.877 14.6343 155.662 13.3771C154.447 12.0781 153.064 11.0305 151.514 10.2343Z"/>
<path d="M184.802 2C181.785 2 178.936 2.58667 176.254 3.76C173.573 4.89143 171.226 6.46286 169.215 8.47429C167.246 10.4857 165.675 12.8324 164.502 15.5143C163.37 18.1543 162.805 20.9829 162.805 24C162.805 27.0171 163.37 29.8667 164.502 32.5486C165.675 35.2305 167.246 37.5771 169.215 39.5886C171.226 41.5581 173.573 43.1295 176.254 44.3029C178.936 45.4343 181.785 46 184.802 46C187.818 46 190.647 45.4343 193.286 44.3029C195.968 43.1295 198.314 41.5581 200.325 39.5886C202.337 37.5771 203.908 35.2305 205.039 32.5486C206.212 29.8667 206.799 27.0171 206.799 24C206.799 20.9829 206.212 18.1543 205.039 15.5143C203.908 12.8324 202.337 10.4857 200.325 8.47429C198.314 6.46286 195.968 4.89143 193.286 3.76C190.647 2.58667 187.818 2 184.802 2ZM184.802 41.6C182.372 41.6 180.088 41.139 177.951 40.2171C175.814 39.2952 173.95 38.0381 172.358 36.4457C170.766 34.8533 169.509 32.9886 168.587 30.8514C167.665 28.7143 167.204 26.4305 167.204 24C167.204 21.5695 167.665 19.2857 168.587 17.1486C169.509 15.0114 170.766 13.1467 172.358 11.5543C173.95 9.96191 175.814 8.70476 177.951 7.78286C180.088 6.86095 182.372 6.4 184.802 6.4C187.232 6.4 189.515 6.86095 191.652 7.78286C193.789 8.70476 195.654 9.96191 197.246 11.5543C198.838 13.1467 200.095 15.0114 201.017 17.1486C201.939 19.2857 202.399 21.5695 202.399 24C202.399 26.4305 201.939 28.7143 201.017 30.8514C200.095 32.9886 198.838 34.8533 197.246 36.4457C195.654 38.0381 193.789 39.2952 191.652 40.2171C189.515 41.139 187.232 41.6 184.802 41.6ZM184.802 8.6C182.665 8.6 180.654 9.01905 178.768 9.85714C176.925 10.6533 175.312 11.7429 173.929 13.1257C172.546 14.5086 171.436 16.1429 170.598 18.0286C169.802 19.8724 169.404 21.8629 169.404 24C169.404 26.1371 169.802 28.1486 170.598 30.0343C171.436 31.8781 172.546 33.4914 173.929 34.8743C175.312 36.2571 176.925 37.3676 178.768 38.2057C180.654 39.0019 182.665 39.4 184.802 39.4C187.567 39.4 190.123 38.7295 192.469 37.3886C194.858 36.0057 196.743 34.12 198.126 31.7314C198.461 31.1448 198.524 30.579 198.314 30.0343C198.147 29.4476 197.811 29.0076 197.309 28.7143C196.764 28.379 196.198 28.2952 195.612 28.4629C195.067 28.5886 194.648 28.9448 194.355 29.5314C193.391 31.2495 192.029 32.5905 190.27 33.5543C188.552 34.5181 186.729 35 184.802 35C183.461 35 182.183 34.7905 180.968 34.3714C179.795 33.9105 178.726 33.3029 177.763 32.5486C176.841 31.7524 176.045 30.8095 175.374 29.72C174.704 28.6305 174.243 27.4571 173.992 26.2H184.802C185.388 26.2 185.891 25.9905 186.31 25.5714C186.771 25.1105 187.001 24.5867 187.001 24C187.001 23.4133 186.771 22.9105 186.31 22.4914C185.891 22.0305 185.388 21.8 184.802 21.8H173.992C174.243 20.5429 174.704 19.3905 175.374 18.3429C176.045 17.2533 176.841 16.3105 177.763 15.5143C178.726 14.7181 179.795 14.1105 180.968 13.6914C182.183 13.2305 183.461 13 184.802 13C186.729 13 188.552 13.4819 190.27 14.4457C192.029 15.4095 193.391 16.7714 194.355 18.5314C194.648 19.0762 195.067 19.4324 195.612 19.6C196.198 19.7257 196.764 19.621 197.309 19.2857C197.811 18.9924 198.147 18.5733 198.314 18.0286C198.524 17.4419 198.461 16.8762 198.126 16.3314C196.743 13.9429 194.858 12.0571 192.469 10.6743C190.123 9.29143 187.567 8.6 184.802 8.6Z"/>
<path d="M225.003 2C221.986 2 219.137 2.58667 216.455 3.76C213.774 4.89143 211.428 6.46286 209.416 8.47429C207.447 10.4857 205.876 12.8324 204.703 15.5143C203.571 18.1543 203.006 20.9829 203.006 24C203.006 27.0171 203.571 29.8667 204.703 32.5486C205.876 35.2305 207.447 37.5771 209.416 39.5886C211.428 41.5581 213.774 43.1295 216.455 44.3029C219.137 45.4343 221.986 46 225.003 46C228.02 46 230.848 45.4343 233.487 44.3029C236.169 43.1295 238.515 41.5581 240.527 39.5886C242.538 37.5771 244.109 35.2305 245.24 32.5486C246.413 29.8667 247 27.0171 247 24C247 20.9829 246.413 18.1543 245.24 15.5143C244.109 12.8324 242.538 10.4857 240.527 8.47429C238.515 6.46286 236.169 4.89143 233.487 3.76C230.848 2.58667 228.02 2 225.003 2ZM225.003 41.6C222.573 41.6 220.289 41.139 218.152 40.2171C216.016 39.2952 214.151 38.0381 212.559 36.4457C210.967 34.8533 209.71 32.9886 208.788 30.8514C207.866 28.7143 207.405 26.4305 207.405 24C207.405 21.5695 207.866 19.2857 208.788 17.1486C209.71 15.0114 210.967 13.1467 212.559 11.5543C214.151 9.96191 216.016 8.70476 218.152 7.78286C220.289 6.86095 222.573 6.4 225.003 6.4C227.433 6.4 229.717 6.86095 231.853 7.78286C233.99 8.70476 235.855 9.96191 237.447 11.5543C239.039 13.1467 240.296 15.0114 241.218 17.1486C242.14 19.2857 242.601 21.5695 242.601 24C242.601 26.4305 242.14 28.7143 241.218 30.8514C240.296 32.9886 239.039 34.8533 237.447 36.4457C235.855 38.0381 233.99 39.2952 231.853 40.2171C229.717 41.139 227.433 41.6 225.003 41.6ZM225.003 8.6C222.238 8.6 219.661 9.29143 217.272 10.6743C214.926 12.0571 213.062 13.9429 211.679 16.3314C211.344 16.8762 211.26 17.4419 211.428 18.0286C211.637 18.5733 211.972 18.9924 212.433 19.2857C213.02 19.621 213.585 19.7257 214.13 19.6C214.717 19.4324 215.157 19.0762 215.45 18.5314C216.288 17.1486 217.335 16.0171 218.592 15.1371C219.849 14.2152 221.253 13.5867 222.803 13.2514V37.2C222.803 37.7867 223.013 38.3105 223.432 38.7714C223.893 39.1905 224.416 39.4 225.003 39.4C225.59 39.4 226.092 39.1905 226.511 38.7714C226.972 38.3105 227.203 37.7867 227.203 37.2V13.2514C228.753 13.5867 230.157 14.2152 231.413 15.1371C232.67 16.0171 233.718 17.1486 234.556 18.5314C234.849 19.0762 235.268 19.4324 235.813 19.6C236.399 19.7257 236.965 19.621 237.51 19.2857C238.013 18.9924 238.348 18.5733 238.515 18.0286C238.725 17.4419 238.662 16.8762 238.327 16.3314C236.944 13.9429 235.059 12.0571 232.67 10.6743C230.324 9.29143 227.768 8.6 225.003 8.6Z"/>
</mask>
<path d="M23.9971 2C20.9804 2 18.1312 2.58667 15.4497 3.76C12.7681 4.89143 10.4217 6.46286 8.41058 8.47429C6.44132 10.4857 4.8701 12.8324 3.69692 15.5143C2.56564 18.1543 2 20.9829 2 24C2 27.0171 2.56564 29.8667 3.69692 32.5486C4.8701 35.2305 6.44132 37.5771 8.41058 39.5886C10.4217 41.5581 12.7681 43.1295 15.4497 44.3029C18.1312 45.4343 20.9804 46 23.9971 46C27.0138 46 29.842 45.4343 32.4817 44.3029C35.1632 43.1295 37.5096 41.5581 39.5208 39.5886C41.5319 37.5771 43.1031 35.2305 44.2344 32.5486C45.4076 29.8667 45.9942 27.0171 45.9942 24C45.9942 20.9829 45.4076 18.1543 44.2344 15.5143C43.1031 12.8324 41.5319 10.4857 39.5208 8.47429C37.5096 6.46286 35.1632 4.89143 32.4817 3.76C29.842 2.58667 27.0138 2 23.9971 2ZM23.9971 41.6C21.5669 41.6 19.2834 41.139 17.1466 40.2171C15.0097 39.2952 13.1452 38.0381 11.553 36.4457C9.96085 34.8533 8.70388 32.9886 7.78209 30.8514C6.86031 28.7143 6.39942 26.4305 6.39942 24C6.39942 21.5695 6.86031 19.2857 7.78209 17.1486C8.70388 15.0114 9.96085 13.1467 11.553 11.5543C13.1452 9.96191 15.0097 8.70476 17.1466 7.78286C19.2834 6.86095 21.5669 6.4 23.9971 6.4C26.4273 6.4 28.7108 6.86095 30.8476 7.78286C32.9845 8.70476 34.849 9.96191 36.4412 11.5543C38.0333 13.1467 39.2903 15.0114 40.2121 17.1486C41.1339 19.2857 41.5948 21.5695 41.5948 24C41.5948 26.4305 41.1339 28.7143 40.2121 30.8514C39.2903 32.9886 38.0333 34.8533 36.4412 36.4457C34.849 38.0381 32.9845 39.2952 30.8476 40.2171C28.7108 41.139 26.4273 41.6 23.9971 41.6ZM23.9971 8.6C21.2317 8.6 18.6549 9.29143 16.2667 10.6743C13.9203 12.0571 12.0558 13.9429 10.6731 16.3314C10.3379 16.8762 10.2541 17.4419 10.4217 18.0286C10.6312 18.5733 10.9664 18.9924 11.4273 19.2857C12.0139 19.621 12.5796 19.7257 13.1242 19.6C13.7108 19.4324 14.1508 19.0762 14.4441 18.5314C15.2821 17.1486 16.3295 16.0171 17.5865 15.1371C18.8435 14.2152 20.2471 13.5867 21.7974 13.2514V37.2C21.7974 37.7867 22.0069 38.3105 22.4259 38.7714C22.8868 39.1905 23.4105 39.4 23.9971 39.4C24.5837 39.4 25.0865 39.1905 25.5055 38.7714C25.9664 38.3105 26.1968 37.7867 26.1968 37.2V13.2514C27.7471 13.5867 29.1507 14.2152 30.4077 15.1371C31.6647 16.0171 32.7121 17.1486 33.5501 18.5314C33.8434 19.0762 34.2624 19.4324 34.8071 19.6C35.3937 19.7257 35.9593 19.621 36.504 19.2857C37.0068 18.9924 37.342 18.5733 37.5096 18.0286C37.7191 17.4419 37.6562 16.8762 37.3211 16.3314C35.9384 13.9429 34.0529 12.0571 31.6647 10.6743C29.3183 9.29143 26.7624 8.6 23.9971 8.6Z" fill="#006686"/>
<path d="M64.1983 2C61.1815 2 58.3324 2.58667 55.6508 3.76C52.9693 4.89143 50.6229 6.46286 48.6117 8.47429C46.6425 10.4857 45.0713 12.8324 43.8981 15.5143C42.7668 18.1543 42.2012 20.9829 42.2012 24C42.2012 27.0171 42.7668 29.8667 43.8981 32.5486C45.0713 35.2305 46.6425 37.5771 48.6117 39.5886C50.6229 41.5581 52.9693 43.1295 55.6508 44.3029C58.3324 45.4343 61.1815 46 64.1983 46C67.215 46 70.0432 45.4343 72.6828 44.3029C75.3644 43.1295 77.7108 41.5581 79.7219 39.5886C81.7331 37.5771 83.3043 35.2305 84.4356 32.5486C85.6088 29.8667 86.1954 27.0171 86.1954 24C86.1954 20.9829 85.6088 18.1543 84.4356 15.5143C83.3043 12.8324 81.7331 10.4857 79.7219 8.47429C77.7108 6.46286 75.3644 4.89143 72.6828 3.76C70.0432 2.58667 67.215 2 64.1983 2ZM64.1983 41.6C61.7681 41.6 59.4846 41.139 57.3477 40.2171C55.2109 39.2952 53.3464 38.0381 51.7542 36.4457C50.162 34.8533 48.905 32.9886 47.9833 30.8514C47.0615 28.7143 46.6006 26.4305 46.6006 24C46.6006 21.5695 47.0615 19.2857 47.9833 17.1486C48.905 15.0114 50.162 13.1467 51.7542 11.5543C53.3464 9.96191 55.2109 8.70476 57.3477 7.78286C59.4846 6.86095 61.7681 6.4 64.1983 6.4C66.6284 6.4 68.9119 6.86095 71.0488 7.78286C73.1856 8.70476 75.0502 9.96191 76.6423 11.5543C78.2345 13.1467 79.4915 15.0114 80.4133 17.1486C81.335 19.2857 81.7959 21.5695 81.7959 24C81.7959 26.4305 81.335 28.7143 80.4133 30.8514C79.4915 32.9886 78.2345 34.8533 76.6423 36.4457C75.0502 38.0381 73.1856 39.2952 71.0488 40.2171C68.9119 41.139 66.6284 41.6 64.1983 41.6ZM64.1983 8.6C62.0614 8.6 60.0502 9.01905 58.1648 9.85714C56.3212 10.6533 54.7081 11.7429 53.3254 13.1257C51.9427 14.5086 50.8324 16.1429 49.9944 18.0286C49.1983 19.8724 48.8003 21.8629 48.8003 24C48.8003 26.7657 49.4707 29.3429 50.8115 31.7314C52.1941 34.0781 54.0796 35.9429 56.4678 37.3257C57.0544 37.661 57.6201 37.7448 58.1648 37.5771C58.7514 37.3676 59.1913 37.0324 59.4846 36.5714C59.8198 35.9848 59.9036 35.419 59.736 34.8743C59.6103 34.2876 59.2541 33.8476 58.6676 33.5543C57.3268 32.7162 56.1955 31.6686 55.2737 30.4114C54.3519 29.1543 53.7234 27.7505 53.3883 26.2H74.9454C74.6102 27.7505 73.9817 29.1543 73.0599 30.4114C72.1801 31.6686 71.0488 32.7162 69.6661 33.5543C69.1214 33.8476 68.7653 34.2876 68.5977 34.8743C68.472 35.419 68.5767 35.9848 68.9119 36.5714C69.2052 37.0324 69.6242 37.3676 70.1689 37.5771C70.7555 37.7448 71.3211 37.661 71.8658 37.3257C74.2541 35.9429 76.1395 34.0781 77.5222 31.7314C78.9049 29.3429 79.5962 26.7657 79.5962 24C79.5962 21.8629 79.1772 19.8724 78.3392 18.0286C77.5432 16.1429 76.4538 14.5086 75.0711 13.1257C73.6884 11.7429 72.0544 10.6533 70.1689 9.85714C68.3253 9.01905 66.3351 8.6 64.1983 8.6ZM64.1983 13C65.4971 13 66.7541 13.2305 67.9692 13.6914C69.1843 14.1105 70.2527 14.7181 71.1745 15.5143C72.1382 16.3105 72.9342 17.2533 73.5627 18.3429C74.2331 19.3905 74.694 20.5429 74.9454 21.8H53.3883C53.6397 20.5429 54.1005 19.3905 54.7709 18.3429C55.4413 17.2533 56.2374 16.3105 57.1592 15.5143C58.1229 14.7181 59.1913 14.1105 60.3645 13.6914C61.5796 13.2305 62.8575 13 64.1983 13Z" fill="#006686"/>
<path d="M104.399 2C101.383 2 98.5335 2.58667 95.852 3.76C93.1704 4.89143 90.8241 6.46286 88.8129 8.47429C86.8436 10.4857 85.2724 12.8324 84.0992 15.5143C82.968 18.1543 82.4023 20.9829 82.4023 24C82.4023 27.0171 82.968 29.8667 84.0992 32.5486C85.2724 35.2305 86.8436 37.5771 88.8129 39.5886C90.8241 41.5581 93.1704 43.1295 95.852 44.3029C98.5335 45.4343 101.383 46 104.399 46C107.416 46 110.244 45.4343 112.884 44.3029C115.566 43.1295 117.912 41.5581 119.923 39.5886C121.934 37.5771 123.505 35.2305 124.637 32.5486C125.81 29.8667 126.397 27.0171 126.397 24C126.397 20.9829 125.81 18.1543 124.637 15.5143C123.505 12.8324 121.934 10.4857 119.923 8.47429C117.912 6.46286 115.566 4.89143 112.884 3.76C110.244 2.58667 107.416 2 104.399 2ZM104.399 41.6C101.969 41.6 99.6858 41.139 97.5489 40.2171C95.412 39.2952 93.5475 38.0381 91.9553 36.4457C90.3632 34.8533 89.1062 32.9886 88.1844 30.8514C87.2626 28.7143 86.8017 26.4305 86.8017 24C86.8017 21.5695 87.2626 19.2857 88.1844 17.1486C89.1062 15.0114 90.3632 13.1467 91.9553 11.5543C93.5475 9.96191 95.412 8.70476 97.5489 7.78286C99.6858 6.86095 101.969 6.4 104.399 6.4C106.83 6.4 109.113 6.86095 111.25 7.78286C113.387 8.70476 115.251 9.96191 116.843 11.5543C118.436 13.1467 119.693 15.0114 120.614 17.1486C121.536 19.2857 121.997 21.5695 121.997 24C121.997 26.4305 121.536 28.7143 120.614 30.8514C119.693 32.9886 118.436 34.8533 116.843 36.4457C115.251 38.0381 113.387 39.2952 111.25 40.2171C109.113 41.139 106.83 41.6 104.399 41.6ZM113.952 29.5314C112.989 31.2495 111.627 32.5905 109.867 33.5543C108.149 34.5181 106.327 35 104.399 35C102.891 35 101.466 34.7067 100.126 34.12C98.7849 33.5333 97.6117 32.7581 96.6062 31.7943C95.6425 30.7886 94.8673 29.6152 94.2808 28.2743C93.6942 26.9333 93.4009 25.5086 93.4009 24C93.4009 22.0724 93.8827 20.2495 94.8464 18.5314C95.8101 16.7714 97.1509 15.4095 98.8687 14.4457C99.4553 14.1524 99.8115 13.7333 99.9371 13.1886C100.105 12.6019 100.021 12.0362 99.6858 11.4914C99.3925 10.9886 98.9525 10.6533 98.3659 10.4857C97.8212 10.2762 97.2556 10.339 96.669 10.6743C94.2808 12.0571 92.3953 13.9429 91.0126 16.3314C89.6718 18.6781 89.0015 21.2343 89.0015 24C89.0015 26.1371 89.3995 28.1486 90.1956 30.0343C91.0336 31.8781 92.1439 33.4914 93.5266 34.8743C94.9092 36.2571 96.5224 37.3676 98.3659 38.2057C100.251 39.0019 102.263 39.4 104.399 39.4C107.165 39.4 109.721 38.7295 112.067 37.3886C114.455 36.0057 116.341 34.12 117.723 31.7314C118.059 31.1448 118.121 30.579 117.912 30.0343C117.744 29.4476 117.409 29.0076 116.906 28.7143C116.362 28.379 115.796 28.2952 115.209 28.4629C114.665 28.5886 114.246 28.9448 113.952 29.5314Z" fill="#006686"/>
<path d="M144.601 2C141.584 2 138.735 2.58667 136.053 3.76C133.372 4.89143 131.025 6.46286 129.014 8.47429C127.045 10.4857 125.474 12.8324 124.3 15.5143C123.169 18.1543 122.603 20.9829 122.603 24C122.603 27.0171 123.169 29.8667 124.3 32.5486C125.474 35.2305 127.045 37.5771 129.014 39.5886C131.025 41.5581 133.372 43.1295 136.053 44.3029C138.735 45.4343 141.584 46 144.601 46C147.617 46 150.446 45.4343 153.085 44.3029C155.767 43.1295 158.113 41.5581 160.124 39.5886C162.135 37.5771 163.707 35.2305 164.838 32.5486C166.011 29.8667 166.598 27.0171 166.598 24C166.598 20.9829 166.011 18.1543 164.838 15.5143C163.707 12.8324 162.135 10.4857 160.124 8.47429C158.113 6.46286 155.767 4.89143 153.085 3.76C150.446 2.58667 147.617 2 144.601 2ZM144.601 41.6C142.17 41.6 139.887 41.139 137.75 40.2171C135.613 39.2952 133.749 38.0381 132.157 36.4457C130.564 34.8533 129.307 32.9886 128.386 30.8514C127.464 28.7143 127.003 26.4305 127.003 24C127.003 21.5695 127.464 19.2857 128.386 17.1486C129.307 15.0114 130.564 13.1467 132.157 11.5543C133.749 9.96191 135.613 8.70476 137.75 7.78286C139.887 6.86095 142.17 6.4 144.601 6.4C147.031 6.4 149.314 6.86095 151.451 7.78286C153.588 8.70476 155.452 9.96191 157.045 11.5543C158.637 13.1467 159.894 15.0114 160.816 17.1486C161.737 19.2857 162.198 21.5695 162.198 24C162.198 26.4305 161.737 28.7143 160.816 30.8514C159.894 32.9886 158.637 34.8533 157.045 36.4457C155.452 38.0381 153.588 39.2952 151.451 40.2171C149.314 41.139 147.031 41.6 144.601 41.6ZM151.514 10.2343C150.969 9.98286 150.404 9.9619 149.817 10.1714C149.272 10.339 148.853 10.6952 148.56 11.24C148.267 11.8267 148.204 12.4133 148.372 13C148.581 13.5448 148.979 13.9429 149.566 14.1943C150.446 14.6552 151.242 15.221 151.954 15.8914C152.708 16.5619 153.378 17.3162 153.965 18.1543L150.32 21.8H133.791C134.126 20.2495 134.754 18.8457 135.676 17.5886C136.598 16.3314 137.729 15.2838 139.07 14.4457C139.656 14.1524 140.013 13.7333 140.138 13.1886C140.306 12.6019 140.222 12.0362 139.887 11.4914C139.594 10.9886 139.154 10.6533 138.567 10.4857C138.022 10.2762 137.457 10.339 136.87 10.6743C134.482 12.0571 132.596 13.9429 131.214 16.3314C129.873 18.6781 129.203 21.2343 129.203 24C129.203 26.7657 129.873 29.3429 131.214 31.7314C132.596 34.0781 134.482 35.9429 136.87 37.3257C137.457 37.661 138.022 37.7448 138.567 37.5771C139.154 37.3676 139.594 37.0324 139.887 36.5714C140.222 35.9848 140.306 35.419 140.138 34.8743C140.013 34.2876 139.656 33.8476 139.07 33.5543C137.729 32.7162 136.598 31.6686 135.676 30.4114C134.754 29.1543 134.126 27.7505 133.791 26.2H150.32L153.965 29.8457C153.378 30.6838 152.708 31.4381 151.954 32.1086C151.242 32.779 150.446 33.3448 149.566 33.8057C148.979 34.099 148.581 34.539 148.372 35.1257C148.204 35.6705 148.267 36.2152 148.56 36.76C148.853 37.3467 149.272 37.7448 149.817 37.9543C150.404 38.1219 150.969 38.059 151.514 37.7657C153.064 36.9695 154.447 35.9429 155.662 34.6857C156.877 33.4286 157.883 32.0038 158.679 30.4114C158.846 29.9505 158.867 29.4895 158.742 29.0286C158.658 28.5676 158.448 28.1695 158.113 27.8343L154.279 24L158.113 20.1657C158.825 19.4533 159.014 18.6152 158.679 17.6514C157.883 16.059 156.877 14.6343 155.662 13.3771C154.447 12.0781 153.064 11.0305 151.514 10.2343Z" fill="#006686"/>
<path d="M184.802 2C181.785 2 178.936 2.58667 176.254 3.76C173.573 4.89143 171.226 6.46286 169.215 8.47429C167.246 10.4857 165.675 12.8324 164.502 15.5143C163.37 18.1543 162.805 20.9829 162.805 24C162.805 27.0171 163.37 29.8667 164.502 32.5486C165.675 35.2305 167.246 37.5771 169.215 39.5886C171.226 41.5581 173.573 43.1295 176.254 44.3029C178.936 45.4343 181.785 46 184.802 46C187.818 46 190.647 45.4343 193.286 44.3029C195.968 43.1295 198.314 41.5581 200.325 39.5886C202.337 37.5771 203.908 35.2305 205.039 32.5486C206.212 29.8667 206.799 27.0171 206.799 24C206.799 20.9829 206.212 18.1543 205.039 15.5143C203.908 12.8324 202.337 10.4857 200.325 8.47429C198.314 6.46286 195.968 4.89143 193.286 3.76C190.647 2.58667 187.818 2 184.802 2ZM184.802 41.6C182.372 41.6 180.088 41.139 177.951 40.2171C175.814 39.2952 173.95 38.0381 172.358 36.4457C170.766 34.8533 169.509 32.9886 168.587 30.8514C167.665 28.7143 167.204 26.4305 167.204 24C167.204 21.5695 167.665 19.2857 168.587 17.1486C169.509 15.0114 170.766 13.1467 172.358 11.5543C173.95 9.96191 175.814 8.70476 177.951 7.78286C180.088 6.86095 182.372 6.4 184.802 6.4C187.232 6.4 189.515 6.86095 191.652 7.78286C193.789 8.70476 195.654 9.96191 197.246 11.5543C198.838 13.1467 200.095 15.0114 201.017 17.1486C201.939 19.2857 202.399 21.5695 202.399 24C202.399 26.4305 201.939 28.7143 201.017 30.8514C200.095 32.9886 198.838 34.8533 197.246 36.4457C195.654 38.0381 193.789 39.2952 191.652 40.2171C189.515 41.139 187.232 41.6 184.802 41.6ZM184.802 8.6C182.665 8.6 180.654 9.01905 178.768 9.85714C176.925 10.6533 175.312 11.7429 173.929 13.1257C172.546 14.5086 171.436 16.1429 170.598 18.0286C169.802 19.8724 169.404 21.8629 169.404 24C169.404 26.1371 169.802 28.1486 170.598 30.0343C171.436 31.8781 172.546 33.4914 173.929 34.8743C175.312 36.2571 176.925 37.3676 178.768 38.2057C180.654 39.0019 182.665 39.4 184.802 39.4C187.567 39.4 190.123 38.7295 192.469 37.3886C194.858 36.0057 196.743 34.12 198.126 31.7314C198.461 31.1448 198.524 30.579 198.314 30.0343C198.147 29.4476 197.811 29.0076 197.309 28.7143C196.764 28.379 196.198 28.2952 195.612 28.4629C195.067 28.5886 194.648 28.9448 194.355 29.5314C193.391 31.2495 192.029 32.5905 190.27 33.5543C188.552 34.5181 186.729 35 184.802 35C183.461 35 182.183 34.7905 180.968 34.3714C179.795 33.9105 178.726 33.3029 177.763 32.5486C176.841 31.7524 176.045 30.8095 175.374 29.72C174.704 28.6305 174.243 27.4571 173.992 26.2H184.802C185.388 26.2 185.891 25.9905 186.31 25.5714C186.771 25.1105 187.001 24.5867 187.001 24C187.001 23.4133 186.771 22.9105 186.31 22.4914C185.891 22.0305 185.388 21.8 184.802 21.8H173.992C174.243 20.5429 174.704 19.3905 175.374 18.3429C176.045 17.2533 176.841 16.3105 177.763 15.5143C178.726 14.7181 179.795 14.1105 180.968 13.6914C182.183 13.2305 183.461 13 184.802 13C186.729 13 188.552 13.4819 190.27 14.4457C192.029 15.4095 193.391 16.7714 194.355 18.5314C194.648 19.0762 195.067 19.4324 195.612 19.6C196.198 19.7257 196.764 19.621 197.309 19.2857C197.811 18.9924 198.147 18.5733 198.314 18.0286C198.524 17.4419 198.461 16.8762 198.126 16.3314C196.743 13.9429 194.858 12.0571 192.469 10.6743C190.123 9.29143 187.567 8.6 184.802 8.6Z" fill="#006686"/>
<path d="M225.003 2C221.986 2 219.137 2.58667 216.455 3.76C213.774 4.89143 211.428 6.46286 209.416 8.47429C207.447 10.4857 205.876 12.8324 204.703 15.5143C203.571 18.1543 203.006 20.9829 203.006 24C203.006 27.0171 203.571 29.8667 204.703 32.5486C205.876 35.2305 207.447 37.5771 209.416 39.5886C211.428 41.5581 213.774 43.1295 216.455 44.3029C219.137 45.4343 221.986 46 225.003 46C228.02 46 230.848 45.4343 233.487 44.3029C236.169 43.1295 238.515 41.5581 240.527 39.5886C242.538 37.5771 244.109 35.2305 245.24 32.5486C246.413 29.8667 247 27.0171 247 24C247 20.9829 246.413 18.1543 245.24 15.5143C244.109 12.8324 242.538 10.4857 240.527 8.47429C238.515 6.46286 236.169 4.89143 233.487 3.76C230.848 2.58667 228.02 2 225.003 2ZM225.003 41.6C222.573 41.6 220.289 41.139 218.152 40.2171C216.016 39.2952 214.151 38.0381 212.559 36.4457C210.967 34.8533 209.71 32.9886 208.788 30.8514C207.866 28.7143 207.405 26.4305 207.405 24C207.405 21.5695 207.866 19.2857 208.788 17.1486C209.71 15.0114 210.967 13.1467 212.559 11.5543C214.151 9.96191 216.016 8.70476 218.152 7.78286C220.289 6.86095 222.573 6.4 225.003 6.4C227.433 6.4 229.717 6.86095 231.853 7.78286C233.99 8.70476 235.855 9.96191 237.447 11.5543C239.039 13.1467 240.296 15.0114 241.218 17.1486C242.14 19.2857 242.601 21.5695 242.601 24C242.601 26.4305 242.14 28.7143 241.218 30.8514C240.296 32.9886 239.039 34.8533 237.447 36.4457C235.855 38.0381 233.99 39.2952 231.853 40.2171C229.717 41.139 227.433 41.6 225.003 41.6ZM225.003 8.6C222.238 8.6 219.661 9.29143 217.272 10.6743C214.926 12.0571 213.062 13.9429 211.679 16.3314C211.344 16.8762 211.26 17.4419 211.428 18.0286C211.637 18.5733 211.972 18.9924 212.433 19.2857C213.02 19.621 213.585 19.7257 214.13 19.6C214.717 19.4324 215.157 19.0762 215.45 18.5314C216.288 17.1486 217.335 16.0171 218.592 15.1371C219.849 14.2152 221.253 13.5867 222.803 13.2514V37.2C222.803 37.7867 223.013 38.3105 223.432 38.7714C223.893 39.1905 224.416 39.4 225.003 39.4C225.59 39.4 226.092 39.1905 226.511 38.7714C226.972 38.3105 227.203 37.7867 227.203 37.2V13.2514C228.753 13.5867 230.157 14.2152 231.413 15.1371C232.67 16.0171 233.718 17.1486 234.556 18.5314C234.849 19.0762 235.268 19.4324 235.813 19.6C236.399 19.7257 236.965 19.621 237.51 19.2857C238.013 18.9924 238.348 18.5733 238.515 18.0286C238.725 17.4419 238.662 16.8762 238.327 16.3314C236.944 13.9429 235.059 12.0571 232.67 10.6743C230.324 9.29143 227.768 8.6 225.003 8.6Z" fill="#006686"/>
<path d="M23.9971 2C20.9804 2 18.1312 2.58667 15.4497 3.76C12.7681 4.89143 10.4217 6.46286 8.41058 8.47429C6.44132 10.4857 4.8701 12.8324 3.69692 15.5143C2.56564 18.1543 2 20.9829 2 24C2 27.0171 2.56564 29.8667 3.69692 32.5486C4.8701 35.2305 6.44132 37.5771 8.41058 39.5886C10.4217 41.5581 12.7681 43.1295 15.4497 44.3029C18.1312 45.4343 20.9804 46 23.9971 46C27.0138 46 29.842 45.4343 32.4817 44.3029C35.1632 43.1295 37.5096 41.5581 39.5208 39.5886C41.5319 37.5771 43.1031 35.2305 44.2344 32.5486C45.4076 29.8667 45.9942 27.0171 45.9942 24C45.9942 20.9829 45.4076 18.1543 44.2344 15.5143C43.1031 12.8324 41.5319 10.4857 39.5208 8.47429C37.5096 6.46286 35.1632 4.89143 32.4817 3.76C29.842 2.58667 27.0138 2 23.9971 2ZM23.9971 41.6C21.5669 41.6 19.2834 41.139 17.1466 40.2171C15.0097 39.2952 13.1452 38.0381 11.553 36.4457C9.96085 34.8533 8.70388 32.9886 7.78209 30.8514C6.86031 28.7143 6.39942 26.4305 6.39942 24C6.39942 21.5695 6.86031 19.2857 7.78209 17.1486C8.70388 15.0114 9.96085 13.1467 11.553 11.5543C13.1452 9.96191 15.0097 8.70476 17.1466 7.78286C19.2834 6.86095 21.5669 6.4 23.9971 6.4C26.4273 6.4 28.7108 6.86095 30.8476 7.78286C32.9845 8.70476 34.849 9.96191 36.4412 11.5543C38.0333 13.1467 39.2903 15.0114 40.2121 17.1486C41.1339 19.2857 41.5948 21.5695 41.5948 24C41.5948 26.4305 41.1339 28.7143 40.2121 30.8514C39.2903 32.9886 38.0333 34.8533 36.4412 36.4457C34.849 38.0381 32.9845 39.2952 30.8476 40.2171C28.7108 41.139 26.4273 41.6 23.9971 41.6ZM23.9971 8.6C21.2317 8.6 18.6549 9.29143 16.2667 10.6743C13.9203 12.0571 12.0558 13.9429 10.6731 16.3314C10.3379 16.8762 10.2541 17.4419 10.4217 18.0286C10.6312 18.5733 10.9664 18.9924 11.4273 19.2857C12.0139 19.621 12.5796 19.7257 13.1242 19.6C13.7108 19.4324 14.1508 19.0762 14.4441 18.5314C15.2821 17.1486 16.3295 16.0171 17.5865 15.1371C18.8435 14.2152 20.2471 13.5867 21.7974 13.2514V37.2C21.7974 37.7867 22.0069 38.3105 22.4259 38.7714C22.8868 39.1905 23.4105 39.4 23.9971 39.4C24.5837 39.4 25.0865 39.1905 25.5055 38.7714C25.9664 38.3105 26.1968 37.7867 26.1968 37.2V13.2514C27.7471 13.5867 29.1507 14.2152 30.4077 15.1371C31.6647 16.0171 32.7121 17.1486 33.5501 18.5314C33.8434 19.0762 34.2624 19.4324 34.8071 19.6C35.3937 19.7257 35.9593 19.621 36.504 19.2857C37.0068 18.9924 37.342 18.5733 37.5096 18.0286C37.7191 17.4419 37.6562 16.8762 37.3211 16.3314C35.9384 13.9429 34.0529 12.0571 31.6647 10.6743C29.3183 9.29143 26.7624 8.6 23.9971 8.6Z" stroke="black" stroke-width="4" mask="url(#path-1-outside-1)"/>
<path d="M64.1983 2C61.1815 2 58.3324 2.58667 55.6508 3.76C52.9693 4.89143 50.6229 6.46286 48.6117 8.47429C46.6425 10.4857 45.0713 12.8324 43.8981 15.5143C42.7668 18.1543 42.2012 20.9829 42.2012 24C42.2012 27.0171 42.7668 29.8667 43.8981 32.5486C45.0713 35.2305 46.6425 37.5771 48.6117 39.5886C50.6229 41.5581 52.9693 43.1295 55.6508 44.3029C58.3324 45.4343 61.1815 46 64.1983 46C67.215 46 70.0432 45.4343 72.6828 44.3029C75.3644 43.1295 77.7108 41.5581 79.7219 39.5886C81.7331 37.5771 83.3043 35.2305 84.4356 32.5486C85.6088 29.8667 86.1954 27.0171 86.1954 24C86.1954 20.9829 85.6088 18.1543 84.4356 15.5143C83.3043 12.8324 81.7331 10.4857 79.7219 8.47429C77.7108 6.46286 75.3644 4.89143 72.6828 3.76C70.0432 2.58667 67.215 2 64.1983 2ZM64.1983 41.6C61.7681 41.6 59.4846 41.139 57.3477 40.2171C55.2109 39.2952 53.3464 38.0381 51.7542 36.4457C50.162 34.8533 48.905 32.9886 47.9833 30.8514C47.0615 28.7143 46.6006 26.4305 46.6006 24C46.6006 21.5695 47.0615 19.2857 47.9833 17.1486C48.905 15.0114 50.162 13.1467 51.7542 11.5543C53.3464 9.96191 55.2109 8.70476 57.3477 7.78286C59.4846 6.86095 61.7681 6.4 64.1983 6.4C66.6284 6.4 68.9119 6.86095 71.0488 7.78286C73.1856 8.70476 75.0502 9.96191 76.6423 11.5543C78.2345 13.1467 79.4915 15.0114 80.4133 17.1486C81.335 19.2857 81.7959 21.5695 81.7959 24C81.7959 26.4305 81.335 28.7143 80.4133 30.8514C79.4915 32.9886 78.2345 34.8533 76.6423 36.4457C75.0502 38.0381 73.1856 39.2952 71.0488 40.2171C68.9119 41.139 66.6284 41.6 64.1983 41.6ZM64.1983 8.6C62.0614 8.6 60.0502 9.01905 58.1648 9.85714C56.3212 10.6533 54.7081 11.7429 53.3254 13.1257C51.9427 14.5086 50.8324 16.1429 49.9944 18.0286C49.1983 19.8724 48.8003 21.8629 48.8003 24C48.8003 26.7657 49.4707 29.3429 50.8115 31.7314C52.1941 34.0781 54.0796 35.9429 56.4678 37.3257C57.0544 37.661 57.6201 37.7448 58.1648 37.5771C58.7514 37.3676 59.1913 37.0324 59.4846 36.5714C59.8198 35.9848 59.9036 35.419 59.736 34.8743C59.6103 34.2876 59.2541 33.8476 58.6676 33.5543C57.3268 32.7162 56.1955 31.6686 55.2737 30.4114C54.3519 29.1543 53.7234 27.7505 53.3883 26.2H74.9454C74.6102 27.7505 73.9817 29.1543 73.0599 30.4114C72.1801 31.6686 71.0488 32.7162 69.6661 33.5543C69.1214 33.8476 68.7653 34.2876 68.5977 34.8743C68.472 35.419 68.5767 35.9848 68.9119 36.5714C69.2052 37.0324 69.6242 37.3676 70.1689 37.5771C70.7555 37.7448 71.3211 37.661 71.8658 37.3257C74.2541 35.9429 76.1395 34.0781 77.5222 31.7314C78.9049 29.3429 79.5962 26.7657 79.5962 24C79.5962 21.8629 79.1772 19.8724 78.3392 18.0286C77.5432 16.1429 76.4538 14.5086 75.0711 13.1257C73.6884 11.7429 72.0544 10.6533 70.1689 9.85714C68.3253 9.01905 66.3351 8.6 64.1983 8.6ZM64.1983 13C65.4971 13 66.7541 13.2305 67.9692 13.6914C69.1843 14.1105 70.2527 14.7181 71.1745 15.5143C72.1382 16.3105 72.9342 17.2533 73.5627 18.3429C74.2331 19.3905 74.694 20.5429 74.9454 21.8H53.3883C53.6397 20.5429 54.1005 19.3905 54.7709 18.3429C55.4413 17.2533 56.2374 16.3105 57.1592 15.5143C58.1229 14.7181 59.1913 14.1105 60.3645 13.6914C61.5796 13.2305 62.8575 13 64.1983 13Z" stroke="black" stroke-width="4" mask="url(#path-1-outside-1)"/>
<path d="M104.399 2C101.383 2 98.5335 2.58667 95.852 3.76C93.1704 4.89143 90.8241 6.46286 88.8129 8.47429C86.8436 10.4857 85.2724 12.8324 84.0992 15.5143C82.968 18.1543 82.4023 20.9829 82.4023 24C82.4023 27.0171 82.968 29.8667 84.0992 32.5486C85.2724 35.2305 86.8436 37.5771 88.8129 39.5886C90.8241 41.5581 93.1704 43.1295 95.852 44.3029C98.5335 45.4343 101.383 46 104.399 46C107.416 46 110.244 45.4343 112.884 44.3029C115.566 43.1295 117.912 41.5581 119.923 39.5886C121.934 37.5771 123.505 35.2305 124.637 32.5486C125.81 29.8667 126.397 27.0171 126.397 24C126.397 20.9829 125.81 18.1543 124.637 15.5143C123.505 12.8324 121.934 10.4857 119.923 8.47429C117.912 6.46286 115.566 4.89143 112.884 3.76C110.244 2.58667 107.416 2 104.399 2ZM104.399 41.6C101.969 41.6 99.6858 41.139 97.5489 40.2171C95.412 39.2952 93.5475 38.0381 91.9553 36.4457C90.3632 34.8533 89.1062 32.9886 88.1844 30.8514C87.2626 28.7143 86.8017 26.4305 86.8017 24C86.8017 21.5695 87.2626 19.2857 88.1844 17.1486C89.1062 15.0114 90.3632 13.1467 91.9553 11.5543C93.5475 9.96191 95.412 8.70476 97.5489 7.78286C99.6858 6.86095 101.969 6.4 104.399 6.4C106.83 6.4 109.113 6.86095 111.25 7.78286C113.387 8.70476 115.251 9.96191 116.843 11.5543C118.436 13.1467 119.693 15.0114 120.614 17.1486C121.536 19.2857 121.997 21.5695 121.997 24C121.997 26.4305 121.536 28.7143 120.614 30.8514C119.693 32.9886 118.436 34.8533 116.843 36.4457C115.251 38.0381 113.387 39.2952 111.25 40.2171C109.113 41.139 106.83 41.6 104.399 41.6ZM113.952 29.5314C112.989 31.2495 111.627 32.5905 109.867 33.5543C108.149 34.5181 106.327 35 104.399 35C102.891 35 101.466 34.7067 100.126 34.12C98.7849 33.5333 97.6117 32.7581 96.6062 31.7943C95.6425 30.7886 94.8673 29.6152 94.2808 28.2743C93.6942 26.9333 93.4009 25.5086 93.4009 24C93.4009 22.0724 93.8827 20.2495 94.8464 18.5314C95.8101 16.7714 97.1509 15.4095 98.8687 14.4457C99.4553 14.1524 99.8115 13.7333 99.9371 13.1886C100.105 12.6019 100.021 12.0362 99.6858 11.4914C99.3925 10.9886 98.9525 10.6533 98.3659 10.4857C97.8212 10.2762 97.2556 10.339 96.669 10.6743C94.2808 12.0571 92.3953 13.9429 91.0126 16.3314C89.6718 18.6781 89.0015 21.2343 89.0015 24C89.0015 26.1371 89.3995 28.1486 90.1956 30.0343C91.0336 31.8781 92.1439 33.4914 93.5266 34.8743C94.9092 36.2571 96.5224 37.3676 98.3659 38.2057C100.251 39.0019 102.263 39.4 104.399 39.4C107.165 39.4 109.721 38.7295 112.067 37.3886C114.455 36.0057 116.341 34.12 117.723 31.7314C118.059 31.1448 118.121 30.579 117.912 30.0343C117.744 29.4476 117.409 29.0076 116.906 28.7143C116.362 28.379 115.796 28.2952 115.209 28.4629C114.665 28.5886 114.246 28.9448 113.952 29.5314Z" stroke="black" stroke-width="4" mask="url(#path-1-outside-1)"/>
<path d="M144.601 2C141.584 2 138.735 2.58667 136.053 3.76C133.372 4.89143 131.025 6.46286 129.014 8.47429C127.045 10.4857 125.474 12.8324 124.3 15.5143C123.169 18.1543 122.603 20.9829 122.603 24C122.603 27.0171 123.169 29.8667 124.3 32.5486C125.474 35.2305 127.045 37.5771 129.014 39.5886C131.025 41.5581 133.372 43.1295 136.053 44.3029C138.735 45.4343 141.584 46 144.601 46C147.617 46 150.446 45.4343 153.085 44.3029C155.767 43.1295 158.113 41.5581 160.124 39.5886C162.135 37.5771 163.707 35.2305 164.838 32.5486C166.011 29.8667 166.598 27.0171 166.598 24C166.598 20.9829 166.011 18.1543 164.838 15.5143C163.707 12.8324 162.135 10.4857 160.124 8.47429C158.113 6.46286 155.767 4.89143 153.085 3.76C150.446 2.58667 147.617 2 144.601 2ZM144.601 41.6C142.17 41.6 139.887 41.139 137.75 40.2171C135.613 39.2952 133.749 38.0381 132.157 36.4457C130.564 34.8533 129.307 32.9886 128.386 30.8514C127.464 28.7143 127.003 26.4305 127.003 24C127.003 21.5695 127.464 19.2857 128.386 17.1486C129.307 15.0114 130.564 13.1467 132.157 11.5543C133.749 9.96191 135.613 8.70476 137.75 7.78286C139.887 6.86095 142.17 6.4 144.601 6.4C147.031 6.4 149.314 6.86095 151.451 7.78286C153.588 8.70476 155.452 9.96191 157.045 11.5543C158.637 13.1467 159.894 15.0114 160.816 17.1486C161.737 19.2857 162.198 21.5695 162.198 24C162.198 26.4305 161.737 28.7143 160.816 30.8514C159.894 32.9886 158.637 34.8533 157.045 36.4457C155.452 38.0381 153.588 39.2952 151.451 40.2171C149.314 41.139 147.031 41.6 144.601 41.6ZM151.514 10.2343C150.969 9.98286 150.404 9.9619 149.817 10.1714C149.272 10.339 148.853 10.6952 148.56 11.24C148.267 11.8267 148.204 12.4133 148.372 13C148.581 13.5448 148.979 13.9429 149.566 14.1943C150.446 14.6552 151.242 15.221 151.954 15.8914C152.708 16.5619 153.378 17.3162 153.965 18.1543L150.32 21.8H133.791C134.126 20.2495 134.754 18.8457 135.676 17.5886C136.598 16.3314 137.729 15.2838 139.07 14.4457C139.656 14.1524 140.013 13.7333 140.138 13.1886C140.306 12.6019 140.222 12.0362 139.887 11.4914C139.594 10.9886 139.154 10.6533 138.567 10.4857C138.022 10.2762 137.457 10.339 136.87 10.6743C134.482 12.0571 132.596 13.9429 131.214 16.3314C129.873 18.6781 129.203 21.2343 129.203 24C129.203 26.7657 129.873 29.3429 131.214 31.7314C132.596 34.0781 134.482 35.9429 136.87 37.3257C137.457 37.661 138.022 37.7448 138.567 37.5771C139.154 37.3676 139.594 37.0324 139.887 36.5714C140.222 35.9848 140.306 35.419 140.138 34.8743C140.013 34.2876 139.656 33.8476 139.07 33.5543C137.729 32.7162 136.598 31.6686 135.676 30.4114C134.754 29.1543 134.126 27.7505 133.791 26.2H150.32L153.965 29.8457C153.378 30.6838 152.708 31.4381 151.954 32.1086C151.242 32.779 150.446 33.3448 149.566 33.8057C148.979 34.099 148.581 34.539 148.372 35.1257C148.204 35.6705 148.267 36.2152 148.56 36.76C148.853 37.3467 149.272 37.7448 149.817 37.9543C150.404 38.1219 150.969 38.059 151.514 37.7657C153.064 36.9695 154.447 35.9429 155.662 34.6857C156.877 33.4286 157.883 32.0038 158.679 30.4114C158.846 29.9505 158.867 29.4895 158.742 29.0286C158.658 28.5676 158.448 28.1695 158.113 27.8343L154.279 24L158.113 20.1657C158.825 19.4533 159.014 18.6152 158.679 17.6514C157.883 16.059 156.877 14.6343 155.662 13.3771C154.447 12.0781 153.064 11.0305 151.514 10.2343Z" stroke="black" stroke-width="4" mask="url(#path-1-outside-1)"/>
<path d="M184.802 2C181.785 2 178.936 2.58667 176.254 3.76C173.573 4.89143 171.226 6.46286 169.215 8.47429C167.246 10.4857 165.675 12.8324 164.502 15.5143C163.37 18.1543 162.805 20.9829 162.805 24C162.805 27.0171 163.37 29.8667 164.502 32.5486C165.675 35.2305 167.246 37.5771 169.215 39.5886C171.226 41.5581 173.573 43.1295 176.254 44.3029C178.936 45.4343 181.785 46 184.802 46C187.818 46 190.647 45.4343 193.286 44.3029C195.968 43.1295 198.314 41.5581 200.325 39.5886C202.337 37.5771 203.908 35.2305 205.039 32.5486C206.212 29.8667 206.799 27.0171 206.799 24C206.799 20.9829 206.212 18.1543 205.039 15.5143C203.908 12.8324 202.337 10.4857 200.325 8.47429C198.314 6.46286 195.968 4.89143 193.286 3.76C190.647 2.58667 187.818 2 184.802 2ZM184.802 41.6C182.372 41.6 180.088 41.139 177.951 40.2171C175.814 39.2952 173.95 38.0381 172.358 36.4457C170.766 34.8533 169.509 32.9886 168.587 30.8514C167.665 28.7143 167.204 26.4305 167.204 24C167.204 21.5695 167.665 19.2857 168.587 17.1486C169.509 15.0114 170.766 13.1467 172.358 11.5543C173.95 9.96191 175.814 8.70476 177.951 7.78286C180.088 6.86095 182.372 6.4 184.802 6.4C187.232 6.4 189.515 6.86095 191.652 7.78286C193.789 8.70476 195.654 9.96191 197.246 11.5543C198.838 13.1467 200.095 15.0114 201.017 17.1486C201.939 19.2857 202.399 21.5695 202.399 24C202.399 26.4305 201.939 28.7143 201.017 30.8514C200.095 32.9886 198.838 34.8533 197.246 36.4457C195.654 38.0381 193.789 39.2952 191.652 40.2171C189.515 41.139 187.232 41.6 184.802 41.6ZM184.802 8.6C182.665 8.6 180.654 9.01905 178.768 9.85714C176.925 10.6533 175.312 11.7429 173.929 13.1257C172.546 14.5086 171.436 16.1429 170.598 18.0286C169.802 19.8724 169.404 21.8629 169.404 24C169.404 26.1371 169.802 28.1486 170.598 30.0343C171.436 31.8781 172.546 33.4914 173.929 34.8743C175.312 36.2571 176.925 37.3676 178.768 38.2057C180.654 39.0019 182.665 39.4 184.802 39.4C187.567 39.4 190.123 38.7295 192.469 37.3886C194.858 36.0057 196.743 34.12 198.126 31.7314C198.461 31.1448 198.524 30.579 198.314 30.0343C198.147 29.4476 197.811 29.0076 197.309 28.7143C196.764 28.379 196.198 28.2952 195.612 28.4629C195.067 28.5886 194.648 28.9448 194.355 29.5314C193.391 31.2495 192.029 32.5905 190.27 33.5543C188.552 34.5181 186.729 35 184.802 35C183.461 35 182.183 34.7905 180.968 34.3714C179.795 33.9105 178.726 33.3029 177.763 32.5486C176.841 31.7524 176.045 30.8095 175.374 29.72C174.704 28.6305 174.243 27.4571 173.992 26.2H184.802C185.388 26.2 185.891 25.9905 186.31 25.5714C186.771 25.1105 187.001 24.5867 187.001 24C187.001 23.4133 186.771 22.9105 186.31 22.4914C185.891 22.0305 185.388 21.8 184.802 21.8H173.992C174.243 20.5429 174.704 19.3905 175.374 18.3429C176.045 17.2533 176.841 16.3105 177.763 15.5143C178.726 14.7181 179.795 14.1105 180.968 13.6914C182.183 13.2305 183.461 13 184.802 13C186.729 13 188.552 13.4819 190.27 14.4457C192.029 15.4095 193.391 16.7714 194.355 18.5314C194.648 19.0762 195.067 19.4324 195.612 19.6C196.198 19.7257 196.764 19.621 197.309 19.2857C197.811 18.9924 198.147 18.5733 198.314 18.0286C198.524 17.4419 198.461 16.8762 198.126 16.3314C196.743 13.9429 194.858 12.0571 192.469 10.6743C190.123 9.29143 187.567 8.6 184.802 8.6Z" stroke="black" stroke-width="4" mask="url(#path-1-outside-1)"/>
<path d="M225.003 2C221.986 2 219.137 2.58667 216.455 3.76C213.774 4.89143 211.428 6.46286 209.416 8.47429C207.447 10.4857 205.876 12.8324 204.703 15.5143C203.571 18.1543 203.006 20.9829 203.006 24C203.006 27.0171 203.571 29.8667 204.703 32.5486C205.876 35.2305 207.447 37.5771 209.416 39.5886C211.428 41.5581 213.774 43.1295 216.455 44.3029C219.137 45.4343 221.986 46 225.003 46C228.02 46 230.848 45.4343 233.487 44.3029C236.169 43.1295 238.515 41.5581 240.527 39.5886C242.538 37.5771 244.109 35.2305 245.24 32.5486C246.413 29.8667 247 27.0171 247 24C247 20.9829 246.413 18.1543 245.24 15.5143C244.109 12.8324 242.538 10.4857 240.527 8.47429C238.515 6.46286 236.169 4.89143 233.487 3.76C230.848 2.58667 228.02 2 225.003 2ZM225.003 41.6C222.573 41.6 220.289 41.139 218.152 40.2171C216.016 39.2952 214.151 38.0381 212.559 36.4457C210.967 34.8533 209.71 32.9886 208.788 30.8514C207.866 28.7143 207.405 26.4305 207.405 24C207.405 21.5695 207.866 19.2857 208.788 17.1486C209.71 15.0114 210.967 13.1467 212.559 11.5543C214.151 9.96191 216.016 8.70476 218.152 7.78286C220.289 6.86095 222.573 6.4 225.003 6.4C227.433 6.4 229.717 6.86095 231.853 7.78286C233.99 8.70476 235.855 9.96191 237.447 11.5543C239.039 13.1467 240.296 15.0114 241.218 17.1486C242.14 19.2857 242.601 21.5695 242.601 24C242.601 26.4305 242.14 28.7143 241.218 30.8514C240.296 32.9886 239.039 34.8533 237.447 36.4457C235.855 38.0381 233.99 39.2952 231.853 40.2171C229.717 41.139 227.433 41.6 225.003 41.6ZM225.003 8.6C222.238 8.6 219.661 9.29143 217.272 10.6743C214.926 12.0571 213.062 13.9429 211.679 16.3314C211.344 16.8762 211.26 17.4419 211.428 18.0286C211.637 18.5733 211.972 18.9924 212.433 19.2857C213.02 19.621 213.585 19.7257 214.13 19.6C214.717 19.4324 215.157 19.0762 215.45 18.5314C216.288 17.1486 217.335 16.0171 218.592 15.1371C219.849 14.2152 221.253 13.5867 222.803 13.2514V37.2C222.803 37.7867 223.013 38.3105 223.432 38.7714C223.893 39.1905 224.416 39.4 225.003 39.4C225.59 39.4 226.092 39.1905 226.511 38.7714C226.972 38.3105 227.203 37.7867 227.203 37.2V13.2514C228.753 13.5867 230.157 14.2152 231.413 15.1371C232.67 16.0171 233.718 17.1486 234.556 18.5314C234.849 19.0762 235.268 19.4324 235.813 19.6C236.399 19.7257 236.965 19.621 237.51 19.2857C238.013 18.9924 238.348 18.5733 238.515 18.0286C238.725 17.4419 238.662 16.8762 238.327 16.3314C236.944 13.9429 235.059 12.0571 232.67 10.6743C230.324 9.29143 227.768 8.6 225.003 8.6Z" stroke="black" stroke-width="4" mask="url(#path-1-outside-1)"/>
</svg>
