<svg width="109" height="99" viewBox="0 0 109 99" fill="none" xmlns="http://www.w3.org/2000/svg">
<g style="mix-blend-mode:multiply">
<path d="M13.8082 17.1864C13.8082 16.3195 13.1398 15.6102 12.3229 15.6102H3.4853C2.66839 15.6102 2 16.3195 2 17.1864V94.4237C2 95.2907 2.66839 96 3.4853 96H29.1811C29.998 96 30.6664 95.2907 30.6664 94.4237V86.6212C30.6664 85.7542 29.998 85.0449 29.1811 85.0449H13.8082V17.1864Z" fill="#7A2DF8"/>
<path d="M18.2455 80.2373C18.2455 81.1042 18.9139 81.8136 19.7308 81.8136H41.4163C42.2332 81.8136 42.9016 81.1042 42.9016 80.2373V73.2229C42.8273 72.3559 42.1589 71.6466 41.342 71.6466H30.0537V52.9678H37.703C38.5199 52.9678 39.1883 52.2585 39.1883 51.3915V43.6678C39.1883 42.8008 38.5199 42.0915 37.703 42.0915H30.0537V25.7771H41.342C42.1589 25.7771 42.8273 25.0678 42.8273 24.2008V17.1864C42.8273 16.2407 42.1589 15.6102 41.4163 15.6102H19.7308C18.9139 15.6102 18.2455 16.3195 18.2455 17.1864V80.2373Z" fill="#7A2DF8"/>
<path d="M48.8132 15.6102C47.9963 15.6102 47.3279 16.3195 47.3279 17.1864V80.2373C47.3279 81.1042 47.9963 81.8136 48.8132 81.8136H57.6508C58.4677 81.8136 59.1361 81.1042 59.1361 80.2373V17.1864C59.1361 16.3195 58.4677 15.6102 57.6508 15.6102H48.8132Z" fill="#7A2DF8"/>
<path d="M48.7946 3C47.9777 3 47.3093 3.70932 47.3093 4.57627V11.5907C47.3093 12.4576 47.9777 13.1669 48.7946 13.1669H63.5734V80.2373C63.5734 81.1042 64.2418 81.8136 65.0587 81.8136H73.822C74.6389 81.8136 75.3073 81.1042 75.3073 80.2373V13.1669H90.0861C90.903 13.1669 91.5714 12.4576 91.5714 11.5907V4.57627C91.5714 3.70932 90.903 3 90.0861 3H48.7946Z" fill="#7A2DF8"/>
<path d="M84.9432 15.6102C83.6065 15.6102 79.8189 15.689 79.8189 21.1271V80.2373C79.8189 81.1042 80.4873 81.8136 81.3042 81.8136H90.1418C90.9587 81.8136 91.6271 81.1042 91.6271 80.2373V58.4847H95.1918V80.2373C95.1918 81.1042 95.8602 81.8136 96.6771 81.8136H105.515C106.332 81.8136 107 81.1042 107 80.2373V20.8119C107 15.689 103.361 15.6102 102.024 15.6102H84.9432ZM91.6271 25.7771H95.1918V48.3966H91.6271V25.7771Z" fill="#7A2DF8"/>
</g>
<g style="mix-blend-mode:multiply">
<path fill-rule="evenodd" clip-rule="evenodd" d="M16.431 15.2296C15.7991 13.726 14.3941 12.6776 12.766 12.6776H4.02126C1.80374 12.6776 0 14.6225 0 17.0136V94.6641C0 97.0551 1.80374 99 4.02126 99H29.4471C31.6646 99 33.4683 97.0551 33.4683 94.6641V86.8198C33.4683 86.0657 33.2889 85.356 32.9737 84.7377H41.5537C43.1772 84.7377 44.5788 83.6953 45.2133 82.1986C45.8478 83.6953 47.2495 84.7377 48.8729 84.7377H57.6177C59.2458 84.7377 60.6508 83.6893 61.2827 82.1856C61.9146 83.6893 63.3197 84.7377 64.9478 84.7377H73.619C75.2795 84.7377 76.7079 83.6472 77.3208 82.0955C77.9337 83.6472 79.3622 84.7377 81.0226 84.7377H89.7673C91.0912 84.7377 92.2675 84.0445 93.0007 82.9771C93.7338 84.0445 94.9102 84.7377 96.234 84.7377H104.979C107.196 84.7377 109 82.7928 109 80.4017V20.6584C109 17.2657 107.738 14.9624 105.759 13.7299C104.068 12.6768 102.233 12.6774 101.553 12.6776L93.5519 12.6776C93.6699 12.2701 93.7335 11.8368 93.7335 11.3879V4.33593C93.7335 1.94487 91.9298 0 89.7122 0H48.8546C46.6371 0 44.8333 1.94487 44.8333 4.33593V11.3879C44.8333 12.4658 45.1999 13.453 45.8057 14.2123C45.5526 14.5341 45.3421 14.896 45.1839 15.288C44.5748 13.7244 43.1597 12.6776 41.5537 12.6776H20.0961C18.468 12.6776 17.0629 13.726 16.431 15.2296ZM44.8517 26.4267C44.1337 27.6146 42.8907 28.4014 41.4802 28.4014H32.8621V39.3007H37.8795C40.097 39.3007 41.9007 41.2455 41.9007 43.6366V51.4016C41.9007 53.7927 40.097 55.7376 37.8795 55.7376H32.8621V69.0139H41.4802C42.933 69.0139 44.1328 69.8181 44.8517 70.9636V26.4267ZM48.1138 12.7551C48.3317 12.8932 48.5849 12.9726 48.8546 12.9726H63.4781V80.4017C63.4781 81.2733 64.1395 81.9864 64.9478 81.9864H73.619C74.4274 81.9864 75.0887 81.2733 75.0887 80.4017V12.9726H89.7122C90.0289 12.9726 90.323 12.8631 90.5636 12.6776C90.9372 12.3896 91.1819 11.918 91.1819 11.3879V4.33593C91.1819 3.46434 90.5206 2.75122 89.7122 2.75122H48.8546C48.0462 2.75122 47.3849 3.46434 47.3849 4.33593V11.3879C47.3849 11.9687 47.6786 12.4792 48.1138 12.7551ZM78.3476 15.7238H77.6403V17.1285C77.8357 16.6156 78.073 16.1475 78.3476 15.7238ZM58.469 15.7238C58.2284 15.5383 57.9343 15.4289 57.6177 15.4289H48.8729C48.8668 15.4289 48.8607 15.4289 48.8546 15.429C48.5882 15.4325 48.3382 15.5136 48.1233 15.652C47.693 15.9292 47.4032 16.4367 47.4032 17.0136V80.4017C47.4032 81.2733 48.0646 81.9864 48.8729 81.9864H57.6177C58.426 81.9864 59.0874 81.2733 59.0874 80.4017V17.0136C59.0874 16.4834 58.8427 16.0119 58.469 15.7238ZM84.6234 15.4289C84.1377 15.4289 83.3249 15.4395 82.4909 15.7238C81.0536 16.2136 79.5529 17.5157 79.5529 20.9753V80.4017C79.5529 81.2733 80.2143 81.9864 81.0226 81.9864H89.7673C90.5757 81.9864 91.237 81.2733 91.237 80.4017V58.5328H94.7643V80.4017C94.7643 81.2733 95.4257 81.9864 96.234 81.9864H104.979C105.787 81.9864 106.448 81.2733 106.448 80.4017V20.6584C106.448 15.5081 102.848 15.4289 101.525 15.4289H84.6234ZM43.0234 73.3498V80.4017C43.0234 81.2733 42.3621 81.9864 41.5537 81.9864H20.0961C19.2878 81.9864 18.6264 81.2733 18.6264 80.4017V17.0136C18.6264 16.142 19.2878 15.4289 20.0961 15.4289H41.5537C42.2886 15.4289 42.9499 16.0627 42.9499 17.0136V24.0655C42.9499 24.9371 42.2886 25.6502 41.4802 25.6502H30.3105V42.0519H37.8795C38.6878 42.0519 39.3492 42.765 39.3492 43.6366V51.4016C39.3492 52.2732 38.6878 52.9863 37.8795 52.9863H30.3105V71.7651H41.4802C42.2886 71.7651 42.9499 72.4782 43.0234 73.3498ZM12.766 15.4289C13.5743 15.4289 14.2357 16.142 14.2357 17.0136V85.2351H29.4471C30.2554 85.2351 30.9168 85.9482 30.9168 86.8198V94.6641C30.9168 95.5357 30.2554 96.2488 29.4471 96.2488H4.02126C3.21293 96.2488 2.55156 95.5357 2.55156 94.6641V17.0136C2.55156 16.142 3.21293 15.4289 4.02126 15.4289H12.766ZM91.237 25.6502V48.3907H94.7643V25.6502H91.237Z" fill="black"/>
</g>
</svg>
