<svg width="90" height="151" viewBox="0 0 90 151" fill="none" xmlns="http://www.w3.org/2000/svg">
<path d="M20.3618 28.8401V26.3038L40.5611 12.2128H20.3618V9H47.1996V11.5364L26.9152 25.6274H47.1996V28.8401H20.3618Z" fill="black"/>
<path d="M48.682 28.8401V9H69.2217V11.9309H52.4552V16.891H68.3707V19.8219H52.4552V25.9092H69.2217V28.8401H48.682Z" fill="black"/>
<path d="M24.6172 55.5661V62.8934H20.844V43.0533H37.2135C38.3482 43.0533 39.3128 43.1754 40.1072 43.4197C40.9015 43.6451 41.5446 43.9739 42.0363 44.406C42.547 44.8194 42.9158 45.3172 43.1428 45.8997C43.3697 46.4821 43.4832 47.1303 43.4832 47.8442V50.7752C43.4832 51.4891 43.3697 52.1373 43.1428 52.7197C42.9158 53.3021 42.547 53.8094 42.0363 54.2415C41.5446 54.6549 40.9015 54.9837 40.1072 55.2279C39.3128 55.4534 38.3482 55.5661 37.2135 55.5661H24.6172ZM39.71 47.816C39.71 46.5948 38.8778 45.9842 37.2135 45.9842H24.6172V52.6352H37.2135C38.8778 52.6352 39.71 52.0246 39.71 50.8033V47.816Z" fill="black"/>
<path d="M64.8067 62.8934V53.8752H48.4656V62.8934H44.6925V43.0533H48.4656V50.9442H64.8067V43.0533H68.5799V62.8934H64.8067Z" fill="black"/>
<path d="M31.8232 96.9467V88.8867L19 77.1066H23.8229L33.6956 86.1812L43.5683 77.1066H48.3344L35.5964 88.8867V96.9467H31.8232Z" fill="black"/>
<path d="M67.7445 96.9467L63.0635 88.0976H52.5383V96.9467H48.7651V77.1066H65.7303C66.8651 77.1066 67.8296 77.2287 68.624 77.4729C69.4183 77.6984 70.0614 78.0272 70.5531 78.4593C71.0638 78.8726 71.4326 79.3705 71.6596 79.9529C71.8865 80.5354 72 81.1836 72 81.8975V83.3066C72 84.5842 71.6217 85.6551 70.8652 86.5194C70.1087 87.3648 68.8415 87.8721 67.0636 88.0412L71.773 96.9467H67.7445ZM68.2268 81.8693C68.2268 80.6481 67.3946 80.0375 65.7303 80.0375H52.5383V85.1666H65.7303C67.3946 85.1666 68.2268 84.556 68.2268 83.3348V81.8693Z" fill="black"/>
<path d="M27.0287 131C25.8939 131 24.9293 130.887 24.1349 130.662C23.3406 130.418 22.6881 130.089 22.1774 129.675C21.6857 129.243 21.3263 128.736 21.0994 128.154C20.8724 127.571 20.7589 126.923 20.7589 126.209V111.16H24.5321V126.237C24.5321 127.458 25.3643 128.069 27.0287 128.069H39.4263C41.0907 128.069 41.9228 127.458 41.9228 126.237V111.16H45.696V126.209C45.696 126.923 45.6204 127.571 45.4691 128.154C45.3367 128.736 45.0624 129.243 44.6464 129.675C44.2492 130.089 43.6912 130.418 42.9725 130.662C42.2727 130.887 41.3555 131 40.2207 131H27.0287Z" fill="black"/>
<path d="M48.1339 131V128.069H65.4962C67.1606 128.069 67.9928 127.458 67.9928 126.237V123.729C67.9928 122.508 67.1606 121.897 65.4962 121.897H53.7511C52.6163 121.897 51.6517 121.784 50.8574 121.559C50.063 121.315 49.4105 120.986 48.8998 120.573C48.4081 120.141 48.0487 119.633 47.8218 119.051C47.5948 118.468 47.4813 117.82 47.4813 117.106V115.951C47.4813 115.237 47.5948 114.589 47.8218 114.006C48.0487 113.424 48.4081 112.926 48.8998 112.513C49.4105 112.08 50.063 111.752 50.8574 111.526C51.6517 111.282 52.6163 111.16 53.7511 111.16H70.6595V114.091H53.7511C52.0867 114.091 51.2545 114.701 51.2545 115.923V117.134C51.2545 118.356 52.0867 118.966 53.7511 118.966H65.4962C66.631 118.966 67.5956 119.088 68.3899 119.333C69.1843 119.558 69.8273 119.887 70.3191 120.319C70.8297 120.732 71.1986 121.23 71.4255 121.813C71.6525 122.395 71.766 123.043 71.766 123.757V126.209C71.766 126.923 71.6525 127.571 71.4255 128.154C71.1986 128.736 70.8297 129.243 70.3191 129.675C69.8273 130.089 69.1843 130.418 68.3899 130.662C67.5956 130.887 66.631 131 65.4962 131H48.1339Z" fill="black"/>
<path fill-rule="evenodd" clip-rule="evenodd" d="M75.6557 3.55932H14.3443V136.441H75.6557V3.55932ZM11 0V140H79V0H11Z" fill="black"/>
<path d="M2.529 151C2.169 151 1.863 150.964 1.611 150.892C1.359 150.814 1.152 150.709 0.99 150.577C0.834 150.439 0.72 150.277 0.648 150.091C0.576 149.905 0.54 149.698 0.54 149.47V146.194C0.54 145.966 0.576 145.759 0.648 145.573C0.72 145.387 0.834 145.228 0.99 145.096C1.152 144.958 1.359 144.853 1.611 144.781C1.863 144.703 2.169 144.664 2.529 144.664H7.632V145.6H2.529C2.001 145.6 1.737 145.795 1.737 146.185V149.479C1.737 149.869 2.001 150.064 2.529 150.064H7.632V151H2.529ZM10.5798 151C10.2198 151 9.91378 150.964 9.66178 150.892C9.40978 150.814 9.20278 150.709 9.04078 150.577C8.88478 150.439 8.77078 150.277 8.69878 150.091C8.62678 149.905 8.59078 149.698 8.59078 149.47V146.194C8.59078 145.966 8.62678 145.759 8.69878 145.573C8.77078 145.387 8.88478 145.228 9.04078 145.096C9.20278 144.958 9.40978 144.853 9.66178 144.781C9.91378 144.703 10.2198 144.664 10.5798 144.664H14.7648C15.1248 144.664 15.4308 144.703 15.6828 144.781C15.9348 144.853 16.1388 144.958 16.2948 145.096C16.4568 145.228 16.5738 145.387 16.6458 145.573C16.7178 145.759 16.7538 145.966 16.7538 146.194V149.47C16.7538 149.698 16.7178 149.905 16.6458 150.091C16.5738 150.277 16.4568 150.439 16.2948 150.577C16.1388 150.709 15.9348 150.814 15.6828 150.892C15.4308 150.964 15.1248 151 14.7648 151H10.5798ZM15.5568 146.185C15.5568 145.795 15.2928 145.6 14.7648 145.6H10.5798C10.0518 145.6 9.78778 145.795 9.78778 146.185V149.479C9.78778 149.869 10.0518 150.064 10.5798 150.064H14.7648C15.2928 150.064 15.5568 149.869 15.5568 149.479V146.185ZM26.4229 151V146.563L23.2009 151H22.2199L18.9889 146.572V151H17.8819V144.664H18.9979L22.7599 149.839L26.5039 144.664H27.5299V151H26.4229ZM28.7462 151V144.664H29.9432V151H28.7462ZM38.9651 151L32.2061 146.068V151H31.1621V144.664H32.1971L38.5061 149.371V144.664H39.5501V151H38.9651ZM42.9299 151C41.4239 151 40.6709 150.544 40.6709 149.632V146.032C40.6709 145.12 41.4239 144.664 42.9299 144.664H47.8889V145.6H42.9299C42.2219 145.6 41.8679 145.744 41.8679 146.032V149.632C41.8679 149.92 42.2219 150.064 42.9299 150.064H45.7289C46.4369 150.064 46.7909 149.926 46.7909 149.65V147.544H47.9879V149.65C47.9879 150.55 47.2349 151 45.7289 151H42.9299ZM53.6728 151V150.064H59.1808C59.7088 150.064 59.9728 149.869 59.9728 149.479V148.678C59.9728 148.288 59.7088 148.093 59.1808 148.093H55.4548C55.0948 148.093 54.7888 148.057 54.5368 147.985C54.2848 147.907 54.0778 147.802 53.9158 147.67C53.7598 147.532 53.6458 147.37 53.5738 147.184C53.5018 146.998 53.4658 146.791 53.4658 146.563V146.194C53.4658 145.966 53.5018 145.759 53.5738 145.573C53.6458 145.387 53.7598 145.228 53.9158 145.096C54.0778 144.958 54.2848 144.853 54.5368 144.781C54.7888 144.703 55.0948 144.664 55.4548 144.664H60.8188V145.6H55.4548C54.9268 145.6 54.6628 145.795 54.6628 146.185V146.572C54.6628 146.962 54.9268 147.157 55.4548 147.157H59.1808C59.5408 147.157 59.8468 147.196 60.0988 147.274C60.3508 147.346 60.5548 147.451 60.7108 147.589C60.8728 147.721 60.9898 147.88 61.0618 148.066C61.1338 148.252 61.1698 148.459 61.1698 148.687V149.47C61.1698 149.698 61.1338 149.905 61.0618 150.091C60.9898 150.277 60.8728 150.439 60.7108 150.577C60.5548 150.709 60.3508 150.814 60.0988 150.892C59.8468 150.964 59.5408 151 59.1808 151H53.6728ZM64.0964 151C63.7364 151 63.4304 150.964 63.1784 150.892C62.9264 150.814 62.7194 150.709 62.5574 150.577C62.4014 150.439 62.2874 150.277 62.2154 150.091C62.1434 149.905 62.1074 149.698 62.1074 149.47V146.194C62.1074 145.966 62.1434 145.759 62.2154 145.573C62.2874 145.387 62.4014 145.228 62.5574 145.096C62.7194 144.958 62.9264 144.853 63.1784 144.781C63.4304 144.703 63.7364 144.664 64.0964 144.664H68.2814C68.6414 144.664 68.9474 144.703 69.1994 144.781C69.4514 144.853 69.6554 144.958 69.8114 145.096C69.9734 145.228 70.0904 145.387 70.1624 145.573C70.2344 145.759 70.2704 145.966 70.2704 146.194V149.47C70.2704 149.698 70.2344 149.905 70.1624 150.091C70.0904 150.277 69.9734 150.439 69.8114 150.577C69.6554 150.709 69.4514 150.814 69.1994 150.892C68.9474 150.964 68.6414 151 68.2814 151H64.0964ZM69.0734 146.185C69.0734 145.795 68.8094 145.6 68.2814 145.6H64.0964C63.5684 145.6 63.3044 145.795 63.3044 146.185V149.479C63.3044 149.869 63.5684 150.064 64.0964 150.064H68.2814C68.8094 150.064 69.0734 149.869 69.0734 149.479V146.185ZM73.3425 151C72.9825 151 72.6765 150.964 72.4245 150.892C72.1725 150.814 71.9655 150.709 71.8035 150.577C71.6475 150.439 71.5335 150.277 71.4615 150.091C71.3895 149.905 71.3535 149.698 71.3535 149.47V146.194C71.3535 145.966 71.3895 145.759 71.4615 145.573C71.5335 145.387 71.6475 145.228 71.8035 145.096C71.9655 144.958 72.1725 144.853 72.4245 144.781C72.6765 144.703 72.9825 144.664 73.3425 144.664H77.5275C77.8875 144.664 78.1935 144.703 78.4455 144.781C78.6975 144.853 78.9015 144.958 79.0575 145.096C79.2195 145.228 79.3365 145.387 79.4085 145.573C79.4805 145.759 79.5165 145.966 79.5165 146.194V149.47C79.5165 149.698 79.4805 149.905 79.4085 150.091C79.3365 150.277 79.2195 150.439 79.0575 150.577C78.9015 150.709 78.6975 150.814 78.4455 150.892C78.1935 150.964 77.8875 151 77.5275 151H73.3425ZM78.3195 146.185C78.3195 145.795 78.0555 145.6 77.5275 145.6H73.3425C72.8145 145.6 72.5505 145.795 72.5505 146.185V149.479C72.5505 149.869 72.8145 150.064 73.3425 150.064H77.5275C78.0555 150.064 78.3195 149.869 78.3195 149.479V146.185ZM88.4476 151L81.6886 146.068V151H80.6446V144.664H81.6796L87.9886 149.371V144.664H89.0326V151H88.4476Z" fill="black"/>
</svg>
